<mxfile host="Electron" agent="Mozilla/5.0 (X11; Linux x86_64) AppleWebKit/537.36 (KHTML, like Gecko) draw.io/27.0.9 Chrome/134.0.6998.205 Electron/35.4.0 Safari/537.36" version="27.0.9" pages="7">
  <diagram name="App" id="4I6ihnkVUpt66oHv1k8W">
    <mxGraphModel dx="803" dy="733" grid="1" gridSize="10" guides="1" tooltips="1" connect="1" arrows="1" fold="1" page="1" pageScale="1" pageWidth="850" pageHeight="1100" math="0" shadow="0">
      <root>
        <mxCell id="0" />
        <mxCell id="1" parent="0" />
        <mxCell id="NMTy5AJcmj_p9JSZsjYZ-48" value="Converter" style="whiteSpace=wrap;html=1;" vertex="1" parent="1">
          <mxGeometry x="300" y="280" width="160" height="20" as="geometry" />
        </mxCell>
        <mxCell id="NMTy5AJcmj_p9JSZsjYZ-49" value="" style="endArrow=none;dashed=1;html=1;rounded=0;" edge="1" parent="1">
          <mxGeometry width="50" height="50" relative="1" as="geometry">
            <mxPoint x="280" y="260" as="sourcePoint" />
            <mxPoint x="280" y="260" as="targetPoint" />
            <Array as="points">
              <mxPoint x="380" y="260" />
              <mxPoint x="480" y="260" />
              <mxPoint x="480" y="320" />
              <mxPoint x="280" y="320" />
            </Array>
          </mxGeometry>
        </mxCell>
        <mxCell id="NMTy5AJcmj_p9JSZsjYZ-50" value="APP" style="text;html=1;align=center;verticalAlign=middle;resizable=0;points=[];autosize=1;strokeColor=none;fillColor=none;" vertex="1" parent="1">
          <mxGeometry x="280" y="230" width="50" height="30" as="geometry" />
        </mxCell>
      </root>
    </mxGraphModel>
  </diagram>
  <diagram name="API" id="PVkMKzDOcLkDJ9PCymbY">
    <mxGraphModel dx="1085" dy="1297" grid="1" gridSize="10" guides="1" tooltips="1" connect="1" arrows="1" fold="1" page="1" pageScale="1" pageWidth="850" pageHeight="1100" math="0" shadow="0">
      <root>
        <mxCell id="BZv25UCiJ1f3hMxfs5Sv-0" />
        <mxCell id="BZv25UCiJ1f3hMxfs5Sv-1" parent="BZv25UCiJ1f3hMxfs5Sv-0" />
        <mxCell id="VA1TRlXQrN5nIPZGtkWX-0" value="" style="endArrow=none;dashed=1;html=1;rounded=0;" parent="BZv25UCiJ1f3hMxfs5Sv-1" edge="1">
          <mxGeometry width="50" height="50" relative="1" as="geometry">
            <mxPoint x="240" y="200" as="sourcePoint" />
            <mxPoint x="240" y="200" as="targetPoint" />
            <Array as="points">
              <mxPoint x="560" y="200" />
              <mxPoint x="560" y="640" />
              <mxPoint x="400" y="640" />
              <mxPoint x="240" y="640" />
            </Array>
          </mxGeometry>
        </mxCell>
        <mxCell id="VA1TRlXQrN5nIPZGtkWX-1" value="API" style="text;html=1;align=center;verticalAlign=middle;resizable=0;points=[];autosize=1;strokeColor=none;fillColor=none;" parent="BZv25UCiJ1f3hMxfs5Sv-1" vertex="1">
          <mxGeometry x="240" y="170" width="40" height="30" as="geometry" />
        </mxCell>
        <mxCell id="0-jd3st-mSPJkqMS081E-16" style="edgeStyle=orthogonalEdgeStyle;rounded=0;orthogonalLoop=1;jettySize=auto;html=1;exitX=0.25;exitY=1;exitDx=0;exitDy=0;entryX=0.25;entryY=0;entryDx=0;entryDy=0;" edge="1" parent="BZv25UCiJ1f3hMxfs5Sv-1" source="VA1TRlXQrN5nIPZGtkWX-5" target="0-jd3st-mSPJkqMS081E-0">
          <mxGeometry relative="1" as="geometry" />
        </mxCell>
        <mxCell id="0-jd3st-mSPJkqMS081E-18" style="edgeStyle=orthogonalEdgeStyle;rounded=0;orthogonalLoop=1;jettySize=auto;html=1;" edge="1" parent="BZv25UCiJ1f3hMxfs5Sv-1" source="VA1TRlXQrN5nIPZGtkWX-5" target="VA1TRlXQrN5nIPZGtkWX-7">
          <mxGeometry relative="1" as="geometry">
            <Array as="points">
              <mxPoint x="480" y="350" />
            </Array>
          </mxGeometry>
        </mxCell>
        <mxCell id="VA1TRlXQrN5nIPZGtkWX-5" value="convert" style="whiteSpace=wrap;html=1;" parent="BZv25UCiJ1f3hMxfs5Sv-1" vertex="1">
          <mxGeometry x="360" y="340" width="80" height="20" as="geometry" />
        </mxCell>
        <mxCell id="0-jd3st-mSPJkqMS081E-11" style="edgeStyle=orthogonalEdgeStyle;rounded=0;orthogonalLoop=1;jettySize=auto;html=1;" edge="1" parent="BZv25UCiJ1f3hMxfs5Sv-1" source="VA1TRlXQrN5nIPZGtkWX-7" target="VA1TRlXQrN5nIPZGtkWX-9">
          <mxGeometry relative="1" as="geometry">
            <Array as="points">
              <mxPoint x="340" y="310" />
            </Array>
          </mxGeometry>
        </mxCell>
        <mxCell id="0-jd3st-mSPJkqMS081E-12" style="edgeStyle=orthogonalEdgeStyle;rounded=0;orthogonalLoop=1;jettySize=auto;html=1;" edge="1" parent="BZv25UCiJ1f3hMxfs5Sv-1" source="VA1TRlXQrN5nIPZGtkWX-7" target="0-jd3st-mSPJkqMS081E-7">
          <mxGeometry relative="1" as="geometry">
            <Array as="points">
              <mxPoint x="330" y="330" />
            </Array>
          </mxGeometry>
        </mxCell>
        <mxCell id="0-jd3st-mSPJkqMS081E-13" style="edgeStyle=orthogonalEdgeStyle;rounded=0;orthogonalLoop=1;jettySize=auto;html=1;" edge="1" parent="BZv25UCiJ1f3hMxfs5Sv-1" source="VA1TRlXQrN5nIPZGtkWX-7" target="VA1TRlXQrN5nIPZGtkWX-5">
          <mxGeometry relative="1" as="geometry">
            <Array as="points">
              <mxPoint x="320" y="350" />
            </Array>
          </mxGeometry>
        </mxCell>
        <mxCell id="VA1TRlXQrN5nIPZGtkWX-7" value="Input / Output&amp;nbsp;&lt;span style=&quot;background-color: transparent; color: light-dark(rgb(0, 0, 0), rgb(255, 255, 255));&quot;&gt;Interface&lt;/span&gt;" style="whiteSpace=wrap;html=1;" parent="BZv25UCiJ1f3hMxfs5Sv-1" vertex="1">
          <mxGeometry x="280" y="220" width="240" height="20" as="geometry" />
        </mxCell>
        <mxCell id="VA1TRlXQrN5nIPZGtkWX-9" value="set_input" style="whiteSpace=wrap;html=1;" parent="BZv25UCiJ1f3hMxfs5Sv-1" vertex="1">
          <mxGeometry x="360" y="300" width="80" height="20" as="geometry" />
        </mxCell>
        <mxCell id="VA1TRlXQrN5nIPZGtkWX-10" value="" style="endArrow=none;dashed=1;html=1;rounded=0;" parent="BZv25UCiJ1f3hMxfs5Sv-1" edge="1">
          <mxGeometry width="50" height="50" relative="1" as="geometry">
            <mxPoint x="260" y="420" as="sourcePoint" />
            <mxPoint x="260" y="420" as="targetPoint" />
            <Array as="points">
              <mxPoint x="400" y="420" />
              <mxPoint x="540" y="420" />
              <mxPoint x="540" y="620" />
              <mxPoint x="260" y="620" />
            </Array>
          </mxGeometry>
        </mxCell>
        <mxCell id="VA1TRlXQrN5nIPZGtkWX-11" value="APP" style="text;html=1;align=center;verticalAlign=middle;resizable=0;points=[];autosize=1;strokeColor=none;fillColor=none;" parent="BZv25UCiJ1f3hMxfs5Sv-1" vertex="1">
          <mxGeometry x="260" y="390" width="50" height="30" as="geometry" />
        </mxCell>
        <mxCell id="0-jd3st-mSPJkqMS081E-17" style="edgeStyle=orthogonalEdgeStyle;rounded=0;orthogonalLoop=1;jettySize=auto;html=1;exitX=0.75;exitY=0;exitDx=0;exitDy=0;entryX=0.75;entryY=1;entryDx=0;entryDy=0;" edge="1" parent="BZv25UCiJ1f3hMxfs5Sv-1" source="0-jd3st-mSPJkqMS081E-0" target="VA1TRlXQrN5nIPZGtkWX-5">
          <mxGeometry relative="1" as="geometry" />
        </mxCell>
        <mxCell id="0-jd3st-mSPJkqMS081E-0" value="Converter" style="swimlane;fontStyle=1;align=center;verticalAlign=top;childLayout=stackLayout;horizontal=1;startSize=26;horizontalStack=0;resizeParent=1;resizeParentMax=0;resizeLast=0;collapsible=1;marginBottom=0;whiteSpace=wrap;html=1;" vertex="1" parent="BZv25UCiJ1f3hMxfs5Sv-1">
          <mxGeometry x="280" y="440" width="240" height="164" as="geometry" />
        </mxCell>
        <mxCell id="0-jd3st-mSPJkqMS081E-1" value="- _filepath: str" style="text;strokeColor=none;fillColor=none;align=left;verticalAlign=top;spacingLeft=4;spacingRight=4;overflow=hidden;rotatable=0;points=[[0,0.5],[1,0.5]];portConstraint=eastwest;whiteSpace=wrap;html=1;" vertex="1" parent="0-jd3st-mSPJkqMS081E-0">
          <mxGeometry y="26" width="240" height="26" as="geometry" />
        </mxCell>
        <mxCell id="0-jd3st-mSPJkqMS081E-4" value="- _export_file_format: str" style="text;strokeColor=none;fillColor=none;align=left;verticalAlign=top;spacingLeft=4;spacingRight=4;overflow=hidden;rotatable=0;points=[[0,0.5],[1,0.5]];portConstraint=eastwest;whiteSpace=wrap;html=1;" vertex="1" parent="0-jd3st-mSPJkqMS081E-0">
          <mxGeometry y="52" width="240" height="26" as="geometry" />
        </mxCell>
        <mxCell id="0-jd3st-mSPJkqMS081E-2" value="" style="line;strokeWidth=1;fillColor=none;align=left;verticalAlign=middle;spacingTop=-1;spacingLeft=3;spacingRight=3;rotatable=0;labelPosition=right;points=[];portConstraint=eastwest;strokeColor=inherit;" vertex="1" parent="0-jd3st-mSPJkqMS081E-0">
          <mxGeometry y="78" width="240" height="8" as="geometry" />
        </mxCell>
        <mxCell id="0-jd3st-mSPJkqMS081E-3" value="+ set_input(filepath: str): None" style="text;strokeColor=none;fillColor=none;align=left;verticalAlign=top;spacingLeft=4;spacingRight=4;overflow=hidden;rotatable=0;points=[[0,0.5],[1,0.5]];portConstraint=eastwest;whiteSpace=wrap;html=1;" vertex="1" parent="0-jd3st-mSPJkqMS081E-0">
          <mxGeometry y="86" width="240" height="26" as="geometry" />
        </mxCell>
        <mxCell id="0-jd3st-mSPJkqMS081E-5" value="+ set_output(export_file_format: str): None" style="text;strokeColor=none;fillColor=none;align=left;verticalAlign=top;spacingLeft=4;spacingRight=4;overflow=hidden;rotatable=0;points=[[0,0.5],[1,0.5]];portConstraint=eastwest;whiteSpace=wrap;html=1;" vertex="1" parent="0-jd3st-mSPJkqMS081E-0">
          <mxGeometry y="112" width="240" height="26" as="geometry" />
        </mxCell>
        <mxCell id="0-jd3st-mSPJkqMS081E-6" value="+ convert(): Bytes" style="text;strokeColor=none;fillColor=none;align=left;verticalAlign=top;spacingLeft=4;spacingRight=4;overflow=hidden;rotatable=0;points=[[0,0.5],[1,0.5]];portConstraint=eastwest;whiteSpace=wrap;html=1;" vertex="1" parent="0-jd3st-mSPJkqMS081E-0">
          <mxGeometry y="138" width="240" height="26" as="geometry" />
        </mxCell>
        <mxCell id="0-jd3st-mSPJkqMS081E-7" value="set_output" style="whiteSpace=wrap;html=1;" vertex="1" parent="BZv25UCiJ1f3hMxfs5Sv-1">
          <mxGeometry x="360" y="320" width="80" height="20" as="geometry" />
        </mxCell>
      </root>
    </mxGraphModel>
  </diagram>
  <diagram name="API_TEST" id="yr9Fnadm7rKNb2M5ZvUN">
    <mxGraphModel dx="881" dy="1054" grid="1" gridSize="10" guides="1" tooltips="1" connect="1" arrows="1" fold="1" page="1" pageScale="1" pageWidth="850" pageHeight="1100" math="0" shadow="0">
      <root>
        <mxCell id="0vi9L2g1IfY_A_vXSalU-0" />
        <mxCell id="0vi9L2g1IfY_A_vXSalU-1" parent="0vi9L2g1IfY_A_vXSalU-0" />
        <mxCell id="0vi9L2g1IfY_A_vXSalU-2" value="" style="endArrow=none;dashed=1;html=1;rounded=0;entryX=-0.02;entryY=1.013;entryDx=0;entryDy=0;entryPerimeter=0;" parent="0vi9L2g1IfY_A_vXSalU-1" target="0vi9L2g1IfY_A_vXSalU-3" edge="1">
          <mxGeometry width="50" height="50" relative="1" as="geometry">
            <mxPoint x="120" y="200" as="sourcePoint" />
            <mxPoint x="70" y="720" as="targetPoint" />
            <Array as="points">
              <mxPoint x="450" y="200" />
              <mxPoint x="450" y="520" />
              <mxPoint x="450" y="700" />
              <mxPoint x="400" y="700" />
              <mxPoint x="120" y="700" />
            </Array>
          </mxGeometry>
        </mxCell>
        <mxCell id="0vi9L2g1IfY_A_vXSalU-3" value="API" style="text;html=1;align=center;verticalAlign=middle;resizable=0;points=[];autosize=1;strokeColor=none;fillColor=none;" parent="0vi9L2g1IfY_A_vXSalU-1" vertex="1">
          <mxGeometry x="120" y="170" width="40" height="30" as="geometry" />
        </mxCell>
        <mxCell id="fAENnZics3CxrD8XSAIE-12" style="edgeStyle=orthogonalEdgeStyle;rounded=0;orthogonalLoop=1;jettySize=auto;html=1;" parent="0vi9L2g1IfY_A_vXSalU-1" source="0vi9L2g1IfY_A_vXSalU-6" target="0vi9L2g1IfY_A_vXSalU-15" edge="1">
          <mxGeometry relative="1" as="geometry" />
        </mxCell>
        <mxCell id="0vi9L2g1IfY_A_vXSalU-6" value="convert" style="whiteSpace=wrap;html=1;" parent="0vi9L2g1IfY_A_vXSalU-1" vertex="1">
          <mxGeometry x="250" y="360" width="80" height="20" as="geometry" />
        </mxCell>
        <mxCell id="fAENnZics3CxrD8XSAIE-6" style="edgeStyle=orthogonalEdgeStyle;rounded=0;orthogonalLoop=1;jettySize=auto;html=1;exitX=0.25;exitY=1;exitDx=0;exitDy=0;" parent="0vi9L2g1IfY_A_vXSalU-1" source="0vi9L2g1IfY_A_vXSalU-10" target="0vi9L2g1IfY_A_vXSalU-11" edge="1">
          <mxGeometry relative="1" as="geometry" />
        </mxCell>
        <mxCell id="fAENnZics3CxrD8XSAIE-7" style="edgeStyle=orthogonalEdgeStyle;rounded=0;orthogonalLoop=1;jettySize=auto;html=1;entryX=0.5;entryY=0;entryDx=0;entryDy=0;" parent="0vi9L2g1IfY_A_vXSalU-1" source="0vi9L2g1IfY_A_vXSalU-10" target="0vi9L2g1IfY_A_vXSalU-22" edge="1">
          <mxGeometry relative="1" as="geometry" />
        </mxCell>
        <mxCell id="fAENnZics3CxrD8XSAIE-8" style="edgeStyle=orthogonalEdgeStyle;rounded=0;orthogonalLoop=1;jettySize=auto;html=1;exitX=0.75;exitY=1;exitDx=0;exitDy=0;entryX=0.5;entryY=0;entryDx=0;entryDy=0;" parent="0vi9L2g1IfY_A_vXSalU-1" source="0vi9L2g1IfY_A_vXSalU-10" target="0vi9L2g1IfY_A_vXSalU-6" edge="1">
          <mxGeometry relative="1" as="geometry" />
        </mxCell>
        <mxCell id="0vi9L2g1IfY_A_vXSalU-10" value="Sequential Function Call Order" style="whiteSpace=wrap;html=1;" parent="0vi9L2g1IfY_A_vXSalU-1" vertex="1">
          <mxGeometry x="140" y="220" width="200" height="20" as="geometry" />
        </mxCell>
        <mxCell id="0vi9L2g1IfY_A_vXSalU-11" value="set_input" style="whiteSpace=wrap;html=1;" parent="0vi9L2g1IfY_A_vXSalU-1" vertex="1">
          <mxGeometry x="150" y="280" width="80" height="20" as="geometry" />
        </mxCell>
        <mxCell id="0vi9L2g1IfY_A_vXSalU-12" value="" style="endArrow=none;dashed=1;html=1;rounded=0;" parent="0vi9L2g1IfY_A_vXSalU-1" edge="1">
          <mxGeometry width="50" height="50" relative="1" as="geometry">
            <mxPoint x="150" y="420" as="sourcePoint" />
            <mxPoint x="150" y="420" as="targetPoint" />
            <Array as="points">
              <mxPoint x="290" y="420" />
              <mxPoint x="430" y="420" />
              <mxPoint x="430" y="680" />
              <mxPoint x="150" y="680" />
            </Array>
          </mxGeometry>
        </mxCell>
        <mxCell id="0vi9L2g1IfY_A_vXSalU-13" value="APP" style="text;html=1;align=center;verticalAlign=middle;resizable=0;points=[];autosize=1;strokeColor=none;fillColor=none;" parent="0vi9L2g1IfY_A_vXSalU-1" vertex="1">
          <mxGeometry x="150" y="390" width="50" height="30" as="geometry" />
        </mxCell>
        <mxCell id="0vi9L2g1IfY_A_vXSalU-15" value="Converter" style="swimlane;fontStyle=1;align=center;verticalAlign=top;childLayout=stackLayout;horizontal=1;startSize=26;horizontalStack=0;resizeParent=1;resizeParentMax=0;resizeLast=0;collapsible=1;marginBottom=0;whiteSpace=wrap;html=1;" parent="0vi9L2g1IfY_A_vXSalU-1" vertex="1">
          <mxGeometry x="170" y="440" width="240" height="216" as="geometry" />
        </mxCell>
        <mxCell id="Ar5PAjNn1kiSE2yNBeAJ-0" value="+ SUPPORTED_FILE_TYPES" style="text;strokeColor=none;fillColor=none;align=left;verticalAlign=top;spacingLeft=4;spacingRight=4;overflow=hidden;rotatable=0;points=[[0,0.5],[1,0.5]];portConstraint=eastwest;whiteSpace=wrap;html=1;" parent="0vi9L2g1IfY_A_vXSalU-15" vertex="1">
          <mxGeometry y="26" width="240" height="26" as="geometry" />
        </mxCell>
        <mxCell id="Ar5PAjNn1kiSE2yNBeAJ-1" value="+ SUPPORTED_EXPORT_FILE_FORMAT" style="text;strokeColor=none;fillColor=none;align=left;verticalAlign=top;spacingLeft=4;spacingRight=4;overflow=hidden;rotatable=0;points=[[0,0.5],[1,0.5]];portConstraint=eastwest;whiteSpace=wrap;html=1;" parent="0vi9L2g1IfY_A_vXSalU-15" vertex="1">
          <mxGeometry y="52" width="240" height="26" as="geometry" />
        </mxCell>
        <mxCell id="0vi9L2g1IfY_A_vXSalU-16" value="- _filepath: str" style="text;strokeColor=none;fillColor=none;align=left;verticalAlign=top;spacingLeft=4;spacingRight=4;overflow=hidden;rotatable=0;points=[[0,0.5],[1,0.5]];portConstraint=eastwest;whiteSpace=wrap;html=1;" parent="0vi9L2g1IfY_A_vXSalU-15" vertex="1">
          <mxGeometry y="78" width="240" height="26" as="geometry" />
        </mxCell>
        <mxCell id="0vi9L2g1IfY_A_vXSalU-17" value="- _export_file_format: str" style="text;strokeColor=none;fillColor=none;align=left;verticalAlign=top;spacingLeft=4;spacingRight=4;overflow=hidden;rotatable=0;points=[[0,0.5],[1,0.5]];portConstraint=eastwest;whiteSpace=wrap;html=1;" parent="0vi9L2g1IfY_A_vXSalU-15" vertex="1">
          <mxGeometry y="104" width="240" height="26" as="geometry" />
        </mxCell>
        <mxCell id="0vi9L2g1IfY_A_vXSalU-18" value="" style="line;strokeWidth=1;fillColor=none;align=left;verticalAlign=middle;spacingTop=-1;spacingLeft=3;spacingRight=3;rotatable=0;labelPosition=right;points=[];portConstraint=eastwest;strokeColor=inherit;" parent="0vi9L2g1IfY_A_vXSalU-15" vertex="1">
          <mxGeometry y="130" width="240" height="8" as="geometry" />
        </mxCell>
        <mxCell id="0vi9L2g1IfY_A_vXSalU-19" value="+ set_input(filepath: str): None" style="text;strokeColor=none;fillColor=none;align=left;verticalAlign=top;spacingLeft=4;spacingRight=4;overflow=hidden;rotatable=0;points=[[0,0.5],[1,0.5]];portConstraint=eastwest;whiteSpace=wrap;html=1;" parent="0vi9L2g1IfY_A_vXSalU-15" vertex="1">
          <mxGeometry y="138" width="240" height="26" as="geometry" />
        </mxCell>
        <mxCell id="0vi9L2g1IfY_A_vXSalU-20" value="+ set_output(export_file_format: str): None" style="text;strokeColor=none;fillColor=none;align=left;verticalAlign=top;spacingLeft=4;spacingRight=4;overflow=hidden;rotatable=0;points=[[0,0.5],[1,0.5]];portConstraint=eastwest;whiteSpace=wrap;html=1;" parent="0vi9L2g1IfY_A_vXSalU-15" vertex="1">
          <mxGeometry y="164" width="240" height="26" as="geometry" />
        </mxCell>
        <mxCell id="0vi9L2g1IfY_A_vXSalU-21" value="+ convert(): Bytes" style="text;strokeColor=none;fillColor=none;align=left;verticalAlign=top;spacingLeft=4;spacingRight=4;overflow=hidden;rotatable=0;points=[[0,0.5],[1,0.5]];portConstraint=eastwest;whiteSpace=wrap;html=1;" parent="0vi9L2g1IfY_A_vXSalU-15" vertex="1">
          <mxGeometry y="190" width="240" height="26" as="geometry" />
        </mxCell>
        <mxCell id="0vi9L2g1IfY_A_vXSalU-22" value="set_output" style="whiteSpace=wrap;html=1;" parent="0vi9L2g1IfY_A_vXSalU-1" vertex="1">
          <mxGeometry x="200" y="320" width="80" height="20" as="geometry" />
        </mxCell>
        <mxCell id="ztNlYBSrChDKm99DE_Wh-0" value="" style="endArrow=none;dashed=1;html=1;rounded=0;" parent="0vi9L2g1IfY_A_vXSalU-1" edge="1">
          <mxGeometry width="50" height="50" relative="1" as="geometry">
            <mxPoint x="490" y="200" as="sourcePoint" />
            <mxPoint x="490" y="200" as="targetPoint" />
            <Array as="points">
              <mxPoint x="590" y="200" />
              <mxPoint x="690" y="200" />
              <mxPoint x="690" y="340" />
              <mxPoint x="490" y="340" />
            </Array>
          </mxGeometry>
        </mxCell>
        <mxCell id="gVG_1HOnsWoBlKl968-n-2" style="edgeStyle=orthogonalEdgeStyle;rounded=0;orthogonalLoop=1;jettySize=auto;html=1;entryX=0.75;entryY=0;entryDx=0;entryDy=0;" edge="1" parent="0vi9L2g1IfY_A_vXSalU-1" source="ztNlYBSrChDKm99DE_Wh-1" target="0vi9L2g1IfY_A_vXSalU-10">
          <mxGeometry relative="1" as="geometry">
            <Array as="points">
              <mxPoint x="590" y="160" />
              <mxPoint x="290" y="160" />
            </Array>
          </mxGeometry>
        </mxCell>
        <mxCell id="ztNlYBSrChDKm99DE_Wh-1" value="&lt;b&gt;TestConverter&lt;/b&gt;" style="swimlane;fontStyle=0;childLayout=stackLayout;horizontal=1;startSize=26;fillColor=none;horizontalStack=0;resizeParent=1;resizeParentMax=0;resizeLast=0;collapsible=1;marginBottom=0;whiteSpace=wrap;html=1;" parent="0vi9L2g1IfY_A_vXSalU-1" vertex="1">
          <mxGeometry x="510" y="220" width="160" height="104" as="geometry" />
        </mxCell>
        <mxCell id="ztNlYBSrChDKm99DE_Wh-2" value="+ test_input" style="text;strokeColor=none;fillColor=none;align=left;verticalAlign=top;spacingLeft=4;spacingRight=4;overflow=hidden;rotatable=0;points=[[0,0.5],[1,0.5]];portConstraint=eastwest;whiteSpace=wrap;html=1;" parent="ztNlYBSrChDKm99DE_Wh-1" vertex="1">
          <mxGeometry y="26" width="160" height="26" as="geometry" />
        </mxCell>
        <mxCell id="ztNlYBSrChDKm99DE_Wh-3" value="+ test_output" style="text;strokeColor=none;fillColor=none;align=left;verticalAlign=top;spacingLeft=4;spacingRight=4;overflow=hidden;rotatable=0;points=[[0,0.5],[1,0.5]];portConstraint=eastwest;whiteSpace=wrap;html=1;" parent="ztNlYBSrChDKm99DE_Wh-1" vertex="1">
          <mxGeometry y="52" width="160" height="26" as="geometry" />
        </mxCell>
        <mxCell id="ztNlYBSrChDKm99DE_Wh-4" value="+ test_convert" style="text;strokeColor=none;fillColor=none;align=left;verticalAlign=top;spacingLeft=4;spacingRight=4;overflow=hidden;rotatable=0;points=[[0,0.5],[1,0.5]];portConstraint=eastwest;whiteSpace=wrap;html=1;" parent="ztNlYBSrChDKm99DE_Wh-1" vertex="1">
          <mxGeometry y="78" width="160" height="26" as="geometry" />
        </mxCell>
        <mxCell id="ztNlYBSrChDKm99DE_Wh-5" value="API TEST" style="text;html=1;align=center;verticalAlign=middle;resizable=0;points=[];autosize=1;strokeColor=none;fillColor=none;" parent="0vi9L2g1IfY_A_vXSalU-1" vertex="1">
          <mxGeometry x="490" y="170" width="80" height="30" as="geometry" />
        </mxCell>
      </root>
    </mxGraphModel>
  </diagram>
  <diagram name="CLI" id="jvwh_bP9rYpLVBtX5ySp">
    <mxGraphModel dx="1007" dy="1204" grid="1" gridSize="10" guides="1" tooltips="1" connect="1" arrows="1" fold="1" page="1" pageScale="1" pageWidth="850" pageHeight="1100" math="0" shadow="0">
      <root>
        <mxCell id="KbXYGwEeqmLNhFy2PK7b-0" />
        <mxCell id="KbXYGwEeqmLNhFy2PK7b-1" parent="KbXYGwEeqmLNhFy2PK7b-0" />
        <mxCell id="WxLbpRrkl7mXQ_FJeV8q-0" value="" style="endArrow=none;dashed=1;html=1;rounded=0;" edge="1" parent="KbXYGwEeqmLNhFy2PK7b-1">
          <mxGeometry width="50" height="50" relative="1" as="geometry">
            <mxPoint x="40" y="520" as="sourcePoint" />
            <mxPoint x="40" y="520" as="targetPoint" />
            <Array as="points">
              <mxPoint x="200" y="520" />
              <mxPoint x="200" y="660" />
              <mxPoint x="40" y="660" />
            </Array>
          </mxGeometry>
        </mxCell>
        <mxCell id="WxLbpRrkl7mXQ_FJeV8q-1" value="CLI" style="text;html=1;align=center;verticalAlign=middle;resizable=0;points=[];autosize=1;strokeColor=none;fillColor=none;" vertex="1" parent="KbXYGwEeqmLNhFy2PK7b-1">
          <mxGeometry x="40" y="490" width="40" height="30" as="geometry" />
        </mxCell>
        <mxCell id="WxLbpRrkl7mXQ_FJeV8q-2" value="" style="endArrow=none;dashed=1;html=1;rounded=0;entryX=-0.02;entryY=1.013;entryDx=0;entryDy=0;entryPerimeter=0;" edge="1" parent="KbXYGwEeqmLNhFy2PK7b-1" target="WxLbpRrkl7mXQ_FJeV8q-3">
          <mxGeometry width="50" height="50" relative="1" as="geometry">
            <mxPoint x="240" y="520" as="sourcePoint" />
            <mxPoint x="190" y="1040" as="targetPoint" />
            <Array as="points">
              <mxPoint x="580" y="520" />
              <mxPoint x="580" y="840" />
              <mxPoint x="580" y="1020" />
              <mxPoint x="520" y="1020" />
              <mxPoint x="240" y="1020" />
            </Array>
          </mxGeometry>
        </mxCell>
        <mxCell id="WxLbpRrkl7mXQ_FJeV8q-3" value="API" style="text;html=1;align=center;verticalAlign=middle;resizable=0;points=[];autosize=1;strokeColor=none;fillColor=none;" vertex="1" parent="KbXYGwEeqmLNhFy2PK7b-1">
          <mxGeometry x="240" y="490" width="40" height="30" as="geometry" />
        </mxCell>
        <mxCell id="WxLbpRrkl7mXQ_FJeV8q-4" style="edgeStyle=orthogonalEdgeStyle;rounded=0;orthogonalLoop=1;jettySize=auto;html=1;" edge="1" parent="KbXYGwEeqmLNhFy2PK7b-1" source="WxLbpRrkl7mXQ_FJeV8q-5" target="WxLbpRrkl7mXQ_FJeV8q-13">
          <mxGeometry relative="1" as="geometry" />
        </mxCell>
        <mxCell id="WxLbpRrkl7mXQ_FJeV8q-5" value="convert" style="whiteSpace=wrap;html=1;" vertex="1" parent="KbXYGwEeqmLNhFy2PK7b-1">
          <mxGeometry x="370" y="680" width="80" height="20" as="geometry" />
        </mxCell>
        <mxCell id="WxLbpRrkl7mXQ_FJeV8q-6" style="edgeStyle=orthogonalEdgeStyle;rounded=0;orthogonalLoop=1;jettySize=auto;html=1;exitX=0.25;exitY=1;exitDx=0;exitDy=0;" edge="1" parent="KbXYGwEeqmLNhFy2PK7b-1" source="WxLbpRrkl7mXQ_FJeV8q-9" target="WxLbpRrkl7mXQ_FJeV8q-10">
          <mxGeometry relative="1" as="geometry" />
        </mxCell>
        <mxCell id="WxLbpRrkl7mXQ_FJeV8q-7" style="edgeStyle=orthogonalEdgeStyle;rounded=0;orthogonalLoop=1;jettySize=auto;html=1;entryX=0.5;entryY=0;entryDx=0;entryDy=0;" edge="1" parent="KbXYGwEeqmLNhFy2PK7b-1" source="WxLbpRrkl7mXQ_FJeV8q-9" target="WxLbpRrkl7mXQ_FJeV8q-22">
          <mxGeometry relative="1" as="geometry" />
        </mxCell>
        <mxCell id="WxLbpRrkl7mXQ_FJeV8q-8" style="edgeStyle=orthogonalEdgeStyle;rounded=0;orthogonalLoop=1;jettySize=auto;html=1;exitX=0.75;exitY=1;exitDx=0;exitDy=0;entryX=0.5;entryY=0;entryDx=0;entryDy=0;" edge="1" parent="KbXYGwEeqmLNhFy2PK7b-1" source="WxLbpRrkl7mXQ_FJeV8q-9" target="WxLbpRrkl7mXQ_FJeV8q-5">
          <mxGeometry relative="1" as="geometry" />
        </mxCell>
        <mxCell id="WxLbpRrkl7mXQ_FJeV8q-9" value="Sequential Function Call Order" style="whiteSpace=wrap;html=1;" vertex="1" parent="KbXYGwEeqmLNhFy2PK7b-1">
          <mxGeometry x="260" y="540" width="200" height="20" as="geometry" />
        </mxCell>
        <mxCell id="WxLbpRrkl7mXQ_FJeV8q-10" value="set_input" style="whiteSpace=wrap;html=1;" vertex="1" parent="KbXYGwEeqmLNhFy2PK7b-1">
          <mxGeometry x="270" y="600" width="80" height="20" as="geometry" />
        </mxCell>
        <mxCell id="WxLbpRrkl7mXQ_FJeV8q-11" value="" style="endArrow=none;dashed=1;html=1;rounded=0;" edge="1" parent="KbXYGwEeqmLNhFy2PK7b-1">
          <mxGeometry width="50" height="50" relative="1" as="geometry">
            <mxPoint x="270" y="740" as="sourcePoint" />
            <mxPoint x="270" y="740" as="targetPoint" />
            <Array as="points">
              <mxPoint x="410" y="740" />
              <mxPoint x="550" y="740" />
              <mxPoint x="550" y="1000" />
              <mxPoint x="270" y="1000" />
            </Array>
          </mxGeometry>
        </mxCell>
        <mxCell id="WxLbpRrkl7mXQ_FJeV8q-12" value="APP" style="text;html=1;align=center;verticalAlign=middle;resizable=0;points=[];autosize=1;strokeColor=none;fillColor=none;" vertex="1" parent="KbXYGwEeqmLNhFy2PK7b-1">
          <mxGeometry x="270" y="710" width="50" height="30" as="geometry" />
        </mxCell>
        <mxCell id="WxLbpRrkl7mXQ_FJeV8q-13" value="Converter" style="swimlane;fontStyle=1;align=center;verticalAlign=top;childLayout=stackLayout;horizontal=1;startSize=26;horizontalStack=0;resizeParent=1;resizeParentMax=0;resizeLast=0;collapsible=1;marginBottom=0;whiteSpace=wrap;html=1;" vertex="1" parent="KbXYGwEeqmLNhFy2PK7b-1">
          <mxGeometry x="290" y="760" width="240" height="216" as="geometry" />
        </mxCell>
        <mxCell id="WxLbpRrkl7mXQ_FJeV8q-14" value="+ SUPPORTED_FILE_TYPES" style="text;strokeColor=none;fillColor=none;align=left;verticalAlign=top;spacingLeft=4;spacingRight=4;overflow=hidden;rotatable=0;points=[[0,0.5],[1,0.5]];portConstraint=eastwest;whiteSpace=wrap;html=1;" vertex="1" parent="WxLbpRrkl7mXQ_FJeV8q-13">
          <mxGeometry y="26" width="240" height="26" as="geometry" />
        </mxCell>
        <mxCell id="WxLbpRrkl7mXQ_FJeV8q-15" value="+ SUPPORTED_EXPORT_FILE_FORMAT" style="text;strokeColor=none;fillColor=none;align=left;verticalAlign=top;spacingLeft=4;spacingRight=4;overflow=hidden;rotatable=0;points=[[0,0.5],[1,0.5]];portConstraint=eastwest;whiteSpace=wrap;html=1;" vertex="1" parent="WxLbpRrkl7mXQ_FJeV8q-13">
          <mxGeometry y="52" width="240" height="26" as="geometry" />
        </mxCell>
        <mxCell id="WxLbpRrkl7mXQ_FJeV8q-16" value="- _filepath: str" style="text;strokeColor=none;fillColor=none;align=left;verticalAlign=top;spacingLeft=4;spacingRight=4;overflow=hidden;rotatable=0;points=[[0,0.5],[1,0.5]];portConstraint=eastwest;whiteSpace=wrap;html=1;" vertex="1" parent="WxLbpRrkl7mXQ_FJeV8q-13">
          <mxGeometry y="78" width="240" height="26" as="geometry" />
        </mxCell>
        <mxCell id="WxLbpRrkl7mXQ_FJeV8q-17" value="- _export_file_format: str" style="text;strokeColor=none;fillColor=none;align=left;verticalAlign=top;spacingLeft=4;spacingRight=4;overflow=hidden;rotatable=0;points=[[0,0.5],[1,0.5]];portConstraint=eastwest;whiteSpace=wrap;html=1;" vertex="1" parent="WxLbpRrkl7mXQ_FJeV8q-13">
          <mxGeometry y="104" width="240" height="26" as="geometry" />
        </mxCell>
        <mxCell id="WxLbpRrkl7mXQ_FJeV8q-18" value="" style="line;strokeWidth=1;fillColor=none;align=left;verticalAlign=middle;spacingTop=-1;spacingLeft=3;spacingRight=3;rotatable=0;labelPosition=right;points=[];portConstraint=eastwest;strokeColor=inherit;" vertex="1" parent="WxLbpRrkl7mXQ_FJeV8q-13">
          <mxGeometry y="130" width="240" height="8" as="geometry" />
        </mxCell>
        <mxCell id="WxLbpRrkl7mXQ_FJeV8q-19" value="+ set_input(filepath: str): None" style="text;strokeColor=none;fillColor=none;align=left;verticalAlign=top;spacingLeft=4;spacingRight=4;overflow=hidden;rotatable=0;points=[[0,0.5],[1,0.5]];portConstraint=eastwest;whiteSpace=wrap;html=1;" vertex="1" parent="WxLbpRrkl7mXQ_FJeV8q-13">
          <mxGeometry y="138" width="240" height="26" as="geometry" />
        </mxCell>
        <mxCell id="WxLbpRrkl7mXQ_FJeV8q-20" value="+ set_output(export_file_format: str): None" style="text;strokeColor=none;fillColor=none;align=left;verticalAlign=top;spacingLeft=4;spacingRight=4;overflow=hidden;rotatable=0;points=[[0,0.5],[1,0.5]];portConstraint=eastwest;whiteSpace=wrap;html=1;" vertex="1" parent="WxLbpRrkl7mXQ_FJeV8q-13">
          <mxGeometry y="164" width="240" height="26" as="geometry" />
        </mxCell>
        <mxCell id="WxLbpRrkl7mXQ_FJeV8q-21" value="+ convert(): Bytes" style="text;strokeColor=none;fillColor=none;align=left;verticalAlign=top;spacingLeft=4;spacingRight=4;overflow=hidden;rotatable=0;points=[[0,0.5],[1,0.5]];portConstraint=eastwest;whiteSpace=wrap;html=1;" vertex="1" parent="WxLbpRrkl7mXQ_FJeV8q-13">
          <mxGeometry y="190" width="240" height="26" as="geometry" />
        </mxCell>
        <mxCell id="WxLbpRrkl7mXQ_FJeV8q-22" value="set_output" style="whiteSpace=wrap;html=1;" vertex="1" parent="KbXYGwEeqmLNhFy2PK7b-1">
          <mxGeometry x="320" y="640" width="80" height="20" as="geometry" />
        </mxCell>
        <mxCell id="WxLbpRrkl7mXQ_FJeV8q-23" value="" style="endArrow=none;dashed=1;html=1;rounded=0;" edge="1" parent="KbXYGwEeqmLNhFy2PK7b-1">
          <mxGeometry width="50" height="50" relative="1" as="geometry">
            <mxPoint x="620" y="520" as="sourcePoint" />
            <mxPoint x="620" y="520" as="targetPoint" />
            <Array as="points">
              <mxPoint x="720" y="520" />
              <mxPoint x="820" y="520" />
              <mxPoint x="820" y="660" />
              <mxPoint x="620" y="660" />
            </Array>
          </mxGeometry>
        </mxCell>
        <mxCell id="WxLbpRrkl7mXQ_FJeV8q-24" style="edgeStyle=orthogonalEdgeStyle;rounded=0;orthogonalLoop=1;jettySize=auto;html=1;entryX=0.75;entryY=0;entryDx=0;entryDy=0;" edge="1" parent="KbXYGwEeqmLNhFy2PK7b-1" target="WxLbpRrkl7mXQ_FJeV8q-9">
          <mxGeometry relative="1" as="geometry">
            <Array as="points">
              <mxPoint x="720" y="480" />
              <mxPoint x="410" y="480" />
            </Array>
            <mxPoint x="720" y="540" as="sourcePoint" />
            <mxPoint x="420" y="540" as="targetPoint" />
          </mxGeometry>
        </mxCell>
        <mxCell id="WxLbpRrkl7mXQ_FJeV8q-25" value="&lt;b&gt;TestConverter&lt;/b&gt;" style="swimlane;fontStyle=0;childLayout=stackLayout;horizontal=1;startSize=26;fillColor=none;horizontalStack=0;resizeParent=1;resizeParentMax=0;resizeLast=0;collapsible=1;marginBottom=0;whiteSpace=wrap;html=1;" vertex="1" parent="KbXYGwEeqmLNhFy2PK7b-1">
          <mxGeometry x="640" y="540" width="160" height="104" as="geometry" />
        </mxCell>
        <mxCell id="WxLbpRrkl7mXQ_FJeV8q-26" value="+ test_input" style="text;strokeColor=none;fillColor=none;align=left;verticalAlign=top;spacingLeft=4;spacingRight=4;overflow=hidden;rotatable=0;points=[[0,0.5],[1,0.5]];portConstraint=eastwest;whiteSpace=wrap;html=1;" vertex="1" parent="WxLbpRrkl7mXQ_FJeV8q-25">
          <mxGeometry y="26" width="160" height="26" as="geometry" />
        </mxCell>
        <mxCell id="WxLbpRrkl7mXQ_FJeV8q-27" value="+ test_output" style="text;strokeColor=none;fillColor=none;align=left;verticalAlign=top;spacingLeft=4;spacingRight=4;overflow=hidden;rotatable=0;points=[[0,0.5],[1,0.5]];portConstraint=eastwest;whiteSpace=wrap;html=1;" vertex="1" parent="WxLbpRrkl7mXQ_FJeV8q-25">
          <mxGeometry y="52" width="160" height="26" as="geometry" />
        </mxCell>
        <mxCell id="WxLbpRrkl7mXQ_FJeV8q-28" value="+ test_convert" style="text;strokeColor=none;fillColor=none;align=left;verticalAlign=top;spacingLeft=4;spacingRight=4;overflow=hidden;rotatable=0;points=[[0,0.5],[1,0.5]];portConstraint=eastwest;whiteSpace=wrap;html=1;" vertex="1" parent="WxLbpRrkl7mXQ_FJeV8q-25">
          <mxGeometry y="78" width="160" height="26" as="geometry" />
        </mxCell>
        <mxCell id="WxLbpRrkl7mXQ_FJeV8q-29" value="API TEST" style="text;html=1;align=center;verticalAlign=middle;resizable=0;points=[];autosize=1;strokeColor=none;fillColor=none;" vertex="1" parent="KbXYGwEeqmLNhFy2PK7b-1">
          <mxGeometry x="620" y="490" width="80" height="30" as="geometry" />
        </mxCell>
        <mxCell id="WxLbpRrkl7mXQ_FJeV8q-30" style="edgeStyle=orthogonalEdgeStyle;rounded=0;orthogonalLoop=1;jettySize=auto;html=1;entryX=0.25;entryY=0;entryDx=0;entryDy=0;" edge="1" parent="KbXYGwEeqmLNhFy2PK7b-1" source="WxLbpRrkl7mXQ_FJeV8q-31" target="WxLbpRrkl7mXQ_FJeV8q-9">
          <mxGeometry relative="1" as="geometry">
            <Array as="points">
              <mxPoint x="120" y="480" />
              <mxPoint x="310" y="480" />
            </Array>
          </mxGeometry>
        </mxCell>
        <mxCell id="WxLbpRrkl7mXQ_FJeV8q-31" value="&lt;b&gt;main&lt;/b&gt;" style="swimlane;fontStyle=0;childLayout=stackLayout;horizontal=1;startSize=26;fillColor=none;horizontalStack=0;resizeParent=1;resizeParentMax=0;resizeLast=0;collapsible=1;marginBottom=0;whiteSpace=wrap;html=1;" vertex="1" parent="KbXYGwEeqmLNhFy2PK7b-1">
          <mxGeometry x="60" y="540" width="120" height="104" as="geometry" />
        </mxCell>
        <mxCell id="WxLbpRrkl7mXQ_FJeV8q-32" value="+&amp;nbsp;&lt;span style=&quot;text-align: center;&quot;&gt;-h, --help&lt;/span&gt;" style="text;strokeColor=none;fillColor=none;align=left;verticalAlign=top;spacingLeft=4;spacingRight=4;overflow=hidden;rotatable=0;points=[[0,0.5],[1,0.5]];portConstraint=eastwest;whiteSpace=wrap;html=1;" vertex="1" parent="WxLbpRrkl7mXQ_FJeV8q-31">
          <mxGeometry y="26" width="120" height="26" as="geometry" />
        </mxCell>
        <mxCell id="WxLbpRrkl7mXQ_FJeV8q-33" value="+&amp;nbsp;&lt;span style=&quot;text-align: center;&quot;&gt;-i, --input&lt;/span&gt;" style="text;strokeColor=none;fillColor=none;align=left;verticalAlign=top;spacingLeft=4;spacingRight=4;overflow=hidden;rotatable=0;points=[[0,0.5],[1,0.5]];portConstraint=eastwest;whiteSpace=wrap;html=1;" vertex="1" parent="WxLbpRrkl7mXQ_FJeV8q-31">
          <mxGeometry y="52" width="120" height="26" as="geometry" />
        </mxCell>
        <mxCell id="WxLbpRrkl7mXQ_FJeV8q-34" value="+&amp;nbsp;&lt;span style=&quot;text-align: center;&quot;&gt;-o, --output&lt;/span&gt;" style="text;strokeColor=none;fillColor=none;align=left;verticalAlign=top;spacingLeft=4;spacingRight=4;overflow=hidden;rotatable=0;points=[[0,0.5],[1,0.5]];portConstraint=eastwest;whiteSpace=wrap;html=1;" vertex="1" parent="WxLbpRrkl7mXQ_FJeV8q-31">
          <mxGeometry y="78" width="120" height="26" as="geometry" />
        </mxCell>
      </root>
    </mxGraphModel>
  </diagram>
  <diagram name="WUI_BACKEND_FASTAPI" id="_cPdbdkDjfKj1fsXfMEp">
    <mxGraphModel dx="1155" dy="1054" grid="1" gridSize="10" guides="1" tooltips="1" connect="1" arrows="1" fold="1" page="1" pageScale="1" pageWidth="850" pageHeight="1100" math="0" shadow="0">
      <root>
        <mxCell id="w8AtmdIf0ijRNV2Yn8WI-0" />
        <mxCell id="w8AtmdIf0ijRNV2Yn8WI-1" parent="w8AtmdIf0ijRNV2Yn8WI-0" />
        <mxCell id="huh2MVqWgcdqxAIrrXTs-0" value="" style="endArrow=none;dashed=1;html=1;rounded=0;" parent="w8AtmdIf0ijRNV2Yn8WI-1" edge="1">
          <mxGeometry width="50" height="50" relative="1" as="geometry">
            <mxPoint x="60" y="540" as="sourcePoint" />
            <mxPoint x="60" y="540" as="targetPoint" />
            <Array as="points">
              <mxPoint x="220" y="540" />
              <mxPoint x="220" y="680" />
              <mxPoint x="60" y="680" />
            </Array>
          </mxGeometry>
        </mxCell>
        <mxCell id="huh2MVqWgcdqxAIrrXTs-1" value="&lt;b&gt;CLI&lt;/b&gt;" style="text;html=1;align=center;verticalAlign=middle;resizable=0;points=[];autosize=1;strokeColor=none;fillColor=none;" parent="w8AtmdIf0ijRNV2Yn8WI-1" vertex="1">
          <mxGeometry x="60" y="510" width="40" height="30" as="geometry" />
        </mxCell>
        <mxCell id="huh2MVqWgcdqxAIrrXTs-2" value="" style="endArrow=none;dashed=1;html=1;rounded=0;entryX=-0.02;entryY=1.013;entryDx=0;entryDy=0;entryPerimeter=0;" parent="w8AtmdIf0ijRNV2Yn8WI-1" target="huh2MVqWgcdqxAIrrXTs-3" edge="1">
          <mxGeometry width="50" height="50" relative="1" as="geometry">
            <mxPoint x="260" y="540" as="sourcePoint" />
            <mxPoint x="210" y="1060" as="targetPoint" />
            <Array as="points">
              <mxPoint x="600" y="540" />
              <mxPoint x="600" y="860" />
              <mxPoint x="600" y="1090" />
              <mxPoint x="420" y="1090" />
              <mxPoint x="259" y="1090" />
            </Array>
          </mxGeometry>
        </mxCell>
        <mxCell id="huh2MVqWgcdqxAIrrXTs-3" value="&lt;b&gt;API&lt;/b&gt;" style="text;html=1;align=center;verticalAlign=middle;resizable=0;points=[];autosize=1;strokeColor=none;fillColor=none;" parent="w8AtmdIf0ijRNV2Yn8WI-1" vertex="1">
          <mxGeometry x="260" y="510" width="40" height="30" as="geometry" />
        </mxCell>
        <mxCell id="huh2MVqWgcdqxAIrrXTs-4" style="edgeStyle=orthogonalEdgeStyle;rounded=0;orthogonalLoop=1;jettySize=auto;html=1;" parent="w8AtmdIf0ijRNV2Yn8WI-1" source="huh2MVqWgcdqxAIrrXTs-5" target="huh2MVqWgcdqxAIrrXTs-13" edge="1">
          <mxGeometry relative="1" as="geometry" />
        </mxCell>
        <mxCell id="huh2MVqWgcdqxAIrrXTs-5" value="convert" style="whiteSpace=wrap;html=1;" parent="w8AtmdIf0ijRNV2Yn8WI-1" vertex="1">
          <mxGeometry x="390" y="700" width="80" height="20" as="geometry" />
        </mxCell>
        <mxCell id="huh2MVqWgcdqxAIrrXTs-6" style="edgeStyle=orthogonalEdgeStyle;rounded=0;orthogonalLoop=1;jettySize=auto;html=1;exitX=0.25;exitY=1;exitDx=0;exitDy=0;" parent="w8AtmdIf0ijRNV2Yn8WI-1" source="huh2MVqWgcdqxAIrrXTs-9" target="huh2MVqWgcdqxAIrrXTs-10" edge="1">
          <mxGeometry relative="1" as="geometry" />
        </mxCell>
        <mxCell id="huh2MVqWgcdqxAIrrXTs-7" style="edgeStyle=orthogonalEdgeStyle;rounded=0;orthogonalLoop=1;jettySize=auto;html=1;entryX=0.5;entryY=0;entryDx=0;entryDy=0;" parent="w8AtmdIf0ijRNV2Yn8WI-1" source="huh2MVqWgcdqxAIrrXTs-9" target="huh2MVqWgcdqxAIrrXTs-22" edge="1">
          <mxGeometry relative="1" as="geometry" />
        </mxCell>
        <mxCell id="huh2MVqWgcdqxAIrrXTs-8" style="edgeStyle=orthogonalEdgeStyle;rounded=0;orthogonalLoop=1;jettySize=auto;html=1;exitX=0.75;exitY=1;exitDx=0;exitDy=0;entryX=0.5;entryY=0;entryDx=0;entryDy=0;" parent="w8AtmdIf0ijRNV2Yn8WI-1" source="huh2MVqWgcdqxAIrrXTs-9" target="huh2MVqWgcdqxAIrrXTs-5" edge="1">
          <mxGeometry relative="1" as="geometry" />
        </mxCell>
        <mxCell id="huh2MVqWgcdqxAIrrXTs-9" value="Sequential Function Call Order" style="whiteSpace=wrap;html=1;" parent="w8AtmdIf0ijRNV2Yn8WI-1" vertex="1">
          <mxGeometry x="280" y="560" width="200" height="20" as="geometry" />
        </mxCell>
        <mxCell id="huh2MVqWgcdqxAIrrXTs-10" value="set_input" style="whiteSpace=wrap;html=1;" parent="w8AtmdIf0ijRNV2Yn8WI-1" vertex="1">
          <mxGeometry x="290" y="620" width="80" height="20" as="geometry" />
        </mxCell>
        <mxCell id="huh2MVqWgcdqxAIrrXTs-11" value="" style="endArrow=none;dashed=1;html=1;rounded=0;" parent="w8AtmdIf0ijRNV2Yn8WI-1" edge="1">
          <mxGeometry width="50" height="50" relative="1" as="geometry">
            <mxPoint x="280" y="760" as="sourcePoint" />
            <mxPoint x="280" y="760" as="targetPoint" />
            <Array as="points">
              <mxPoint x="440" y="760" />
              <mxPoint x="580" y="760" />
              <mxPoint x="580" y="1070" />
              <mxPoint x="280" y="1070" />
            </Array>
          </mxGeometry>
        </mxCell>
        <mxCell id="huh2MVqWgcdqxAIrrXTs-12" value="&lt;b&gt;APP&lt;/b&gt;" style="text;html=1;align=center;verticalAlign=middle;resizable=0;points=[];autosize=1;strokeColor=none;fillColor=none;" parent="w8AtmdIf0ijRNV2Yn8WI-1" vertex="1">
          <mxGeometry x="280" y="730" width="50" height="30" as="geometry" />
        </mxCell>
        <mxCell id="huh2MVqWgcdqxAIrrXTs-13" value="&lt;span style=&quot;font-weight: normal;&quot;&gt;Converter&lt;/span&gt;" style="swimlane;fontStyle=1;align=center;verticalAlign=top;childLayout=stackLayout;horizontal=1;startSize=26;horizontalStack=0;resizeParent=1;resizeParentMax=0;resizeLast=0;collapsible=1;marginBottom=0;whiteSpace=wrap;html=1;" parent="w8AtmdIf0ijRNV2Yn8WI-1" vertex="1">
          <mxGeometry x="300" y="780" width="260" height="268" as="geometry" />
        </mxCell>
        <mxCell id="huh2MVqWgcdqxAIrrXTs-14" value="+ SUPPORTED_FILE_EXTENSIONS" style="text;strokeColor=none;fillColor=none;align=left;verticalAlign=top;spacingLeft=4;spacingRight=4;overflow=hidden;rotatable=0;points=[[0,0.5],[1,0.5]];portConstraint=eastwest;whiteSpace=wrap;html=1;" parent="huh2MVqWgcdqxAIrrXTs-13" vertex="1">
          <mxGeometry y="26" width="260" height="26" as="geometry" />
        </mxCell>
        <mxCell id="huh2MVqWgcdqxAIrrXTs-15" value="+ SUPPORTED_EXPORT_FILE_FORMAT" style="text;strokeColor=none;fillColor=none;align=left;verticalAlign=top;spacingLeft=4;spacingRight=4;overflow=hidden;rotatable=0;points=[[0,0.5],[1,0.5]];portConstraint=eastwest;whiteSpace=wrap;html=1;" parent="huh2MVqWgcdqxAIrrXTs-13" vertex="1">
          <mxGeometry y="52" width="260" height="26" as="geometry" />
        </mxCell>
        <mxCell id="kl0BIlMkP4CFFoFLszeI-17" value="+ MAP_FILE_FORMAT_TO_FILE_MIMETYPE" style="text;strokeColor=none;fillColor=none;align=left;verticalAlign=top;spacingLeft=4;spacingRight=4;overflow=hidden;rotatable=0;points=[[0,0.5],[1,0.5]];portConstraint=eastwest;whiteSpace=wrap;html=1;" parent="huh2MVqWgcdqxAIrrXTs-13" vertex="1">
          <mxGeometry y="78" width="260" height="26" as="geometry" />
        </mxCell>
        <mxCell id="huh2MVqWgcdqxAIrrXTs-16" value="- _filepath: str" style="text;strokeColor=none;fillColor=none;align=left;verticalAlign=top;spacingLeft=4;spacingRight=4;overflow=hidden;rotatable=0;points=[[0,0.5],[1,0.5]];portConstraint=eastwest;whiteSpace=wrap;html=1;" parent="huh2MVqWgcdqxAIrrXTs-13" vertex="1">
          <mxGeometry y="104" width="260" height="26" as="geometry" />
        </mxCell>
        <mxCell id="huh2MVqWgcdqxAIrrXTs-17" value="- _export_file_format: str" style="text;strokeColor=none;fillColor=none;align=left;verticalAlign=top;spacingLeft=4;spacingRight=4;overflow=hidden;rotatable=0;points=[[0,0.5],[1,0.5]];portConstraint=eastwest;whiteSpace=wrap;html=1;" parent="huh2MVqWgcdqxAIrrXTs-13" vertex="1">
          <mxGeometry y="130" width="260" height="26" as="geometry" />
        </mxCell>
        <mxCell id="huh2MVqWgcdqxAIrrXTs-18" value="" style="line;strokeWidth=1;fillColor=none;align=left;verticalAlign=middle;spacingTop=-1;spacingLeft=3;spacingRight=3;rotatable=0;labelPosition=right;points=[];portConstraint=eastwest;strokeColor=inherit;" parent="huh2MVqWgcdqxAIrrXTs-13" vertex="1">
          <mxGeometry y="156" width="260" height="8" as="geometry" />
        </mxCell>
        <mxCell id="kl0BIlMkP4CFFoFLszeI-18" value="- _join_sequence(items: Sequence[str]): str" style="text;strokeColor=none;fillColor=none;align=left;verticalAlign=top;spacingLeft=4;spacingRight=4;overflow=hidden;rotatable=0;points=[[0,0.5],[1,0.5]];portConstraint=eastwest;whiteSpace=wrap;html=1;" parent="huh2MVqWgcdqxAIrrXTs-13" vertex="1">
          <mxGeometry y="164" width="260" height="26" as="geometry" />
        </mxCell>
        <mxCell id="huh2MVqWgcdqxAIrrXTs-19" value="+ set_input(filepath: str): None" style="text;strokeColor=none;fillColor=none;align=left;verticalAlign=top;spacingLeft=4;spacingRight=4;overflow=hidden;rotatable=0;points=[[0,0.5],[1,0.5]];portConstraint=eastwest;whiteSpace=wrap;html=1;" parent="huh2MVqWgcdqxAIrrXTs-13" vertex="1">
          <mxGeometry y="190" width="260" height="26" as="geometry" />
        </mxCell>
        <mxCell id="huh2MVqWgcdqxAIrrXTs-20" value="+ set_output(export_file_format: str): None" style="text;strokeColor=none;fillColor=none;align=left;verticalAlign=top;spacingLeft=4;spacingRight=4;overflow=hidden;rotatable=0;points=[[0,0.5],[1,0.5]];portConstraint=eastwest;whiteSpace=wrap;html=1;" parent="huh2MVqWgcdqxAIrrXTs-13" vertex="1">
          <mxGeometry y="216" width="260" height="26" as="geometry" />
        </mxCell>
        <mxCell id="huh2MVqWgcdqxAIrrXTs-21" value="+ convert(): Bytes" style="text;strokeColor=none;fillColor=none;align=left;verticalAlign=top;spacingLeft=4;spacingRight=4;overflow=hidden;rotatable=0;points=[[0,0.5],[1,0.5]];portConstraint=eastwest;whiteSpace=wrap;html=1;" parent="huh2MVqWgcdqxAIrrXTs-13" vertex="1">
          <mxGeometry y="242" width="260" height="26" as="geometry" />
        </mxCell>
        <mxCell id="huh2MVqWgcdqxAIrrXTs-22" value="set_output" style="whiteSpace=wrap;html=1;" parent="w8AtmdIf0ijRNV2Yn8WI-1" vertex="1">
          <mxGeometry x="340" y="660" width="80" height="20" as="geometry" />
        </mxCell>
        <mxCell id="huh2MVqWgcdqxAIrrXTs-23" value="" style="endArrow=none;dashed=1;html=1;rounded=0;" parent="w8AtmdIf0ijRNV2Yn8WI-1" edge="1">
          <mxGeometry width="50" height="50" relative="1" as="geometry">
            <mxPoint x="640" y="540" as="sourcePoint" />
            <mxPoint x="640" y="540" as="targetPoint" />
            <Array as="points">
              <mxPoint x="740" y="540" />
              <mxPoint x="840" y="540" />
              <mxPoint x="840" y="680" />
              <mxPoint x="640" y="680" />
            </Array>
          </mxGeometry>
        </mxCell>
        <mxCell id="huh2MVqWgcdqxAIrrXTs-24" style="edgeStyle=orthogonalEdgeStyle;rounded=0;orthogonalLoop=1;jettySize=auto;html=1;entryX=0.75;entryY=0;entryDx=0;entryDy=0;" parent="w8AtmdIf0ijRNV2Yn8WI-1" target="huh2MVqWgcdqxAIrrXTs-9" edge="1">
          <mxGeometry relative="1" as="geometry">
            <Array as="points">
              <mxPoint x="740" y="500" />
              <mxPoint x="430" y="500" />
            </Array>
            <mxPoint x="740" y="560" as="sourcePoint" />
            <mxPoint x="440" y="560" as="targetPoint" />
          </mxGeometry>
        </mxCell>
        <mxCell id="huh2MVqWgcdqxAIrrXTs-25" value="TestConverter" style="swimlane;fontStyle=0;childLayout=stackLayout;horizontal=1;startSize=26;fillColor=none;horizontalStack=0;resizeParent=1;resizeParentMax=0;resizeLast=0;collapsible=1;marginBottom=0;whiteSpace=wrap;html=1;" parent="w8AtmdIf0ijRNV2Yn8WI-1" vertex="1">
          <mxGeometry x="660" y="560" width="160" height="104" as="geometry" />
        </mxCell>
        <mxCell id="huh2MVqWgcdqxAIrrXTs-26" value="+ test_input" style="text;strokeColor=none;fillColor=none;align=left;verticalAlign=top;spacingLeft=4;spacingRight=4;overflow=hidden;rotatable=0;points=[[0,0.5],[1,0.5]];portConstraint=eastwest;whiteSpace=wrap;html=1;" parent="huh2MVqWgcdqxAIrrXTs-25" vertex="1">
          <mxGeometry y="26" width="160" height="26" as="geometry" />
        </mxCell>
        <mxCell id="huh2MVqWgcdqxAIrrXTs-27" value="+ test_output" style="text;strokeColor=none;fillColor=none;align=left;verticalAlign=top;spacingLeft=4;spacingRight=4;overflow=hidden;rotatable=0;points=[[0,0.5],[1,0.5]];portConstraint=eastwest;whiteSpace=wrap;html=1;" parent="huh2MVqWgcdqxAIrrXTs-25" vertex="1">
          <mxGeometry y="52" width="160" height="26" as="geometry" />
        </mxCell>
        <mxCell id="huh2MVqWgcdqxAIrrXTs-28" value="+ test_convert" style="text;strokeColor=none;fillColor=none;align=left;verticalAlign=top;spacingLeft=4;spacingRight=4;overflow=hidden;rotatable=0;points=[[0,0.5],[1,0.5]];portConstraint=eastwest;whiteSpace=wrap;html=1;" parent="huh2MVqWgcdqxAIrrXTs-25" vertex="1">
          <mxGeometry y="78" width="160" height="26" as="geometry" />
        </mxCell>
        <mxCell id="huh2MVqWgcdqxAIrrXTs-29" value="&lt;b&gt;API TEST&lt;/b&gt;" style="text;html=1;align=center;verticalAlign=middle;resizable=0;points=[];autosize=1;strokeColor=none;fillColor=none;" parent="w8AtmdIf0ijRNV2Yn8WI-1" vertex="1">
          <mxGeometry x="640" y="510" width="80" height="30" as="geometry" />
        </mxCell>
        <mxCell id="huh2MVqWgcdqxAIrrXTs-30" style="edgeStyle=orthogonalEdgeStyle;rounded=0;orthogonalLoop=1;jettySize=auto;html=1;entryX=0.25;entryY=0;entryDx=0;entryDy=0;" parent="w8AtmdIf0ijRNV2Yn8WI-1" source="huh2MVqWgcdqxAIrrXTs-31" target="huh2MVqWgcdqxAIrrXTs-9" edge="1">
          <mxGeometry relative="1" as="geometry">
            <Array as="points">
              <mxPoint x="140" y="500" />
              <mxPoint x="330" y="500" />
            </Array>
          </mxGeometry>
        </mxCell>
        <mxCell id="huh2MVqWgcdqxAIrrXTs-31" value="main" style="swimlane;fontStyle=0;childLayout=stackLayout;horizontal=1;startSize=26;fillColor=none;horizontalStack=0;resizeParent=1;resizeParentMax=0;resizeLast=0;collapsible=1;marginBottom=0;whiteSpace=wrap;html=1;" parent="w8AtmdIf0ijRNV2Yn8WI-1" vertex="1">
          <mxGeometry x="80" y="560" width="120" height="104" as="geometry" />
        </mxCell>
        <mxCell id="huh2MVqWgcdqxAIrrXTs-32" value="+&amp;nbsp;&lt;span style=&quot;text-align: center;&quot;&gt;-h, --help&lt;/span&gt;" style="text;strokeColor=none;fillColor=none;align=left;verticalAlign=top;spacingLeft=4;spacingRight=4;overflow=hidden;rotatable=0;points=[[0,0.5],[1,0.5]];portConstraint=eastwest;whiteSpace=wrap;html=1;" parent="huh2MVqWgcdqxAIrrXTs-31" vertex="1">
          <mxGeometry y="26" width="120" height="26" as="geometry" />
        </mxCell>
        <mxCell id="huh2MVqWgcdqxAIrrXTs-33" value="+&amp;nbsp;&lt;span style=&quot;text-align: center;&quot;&gt;-i, --input&lt;/span&gt;" style="text;strokeColor=none;fillColor=none;align=left;verticalAlign=top;spacingLeft=4;spacingRight=4;overflow=hidden;rotatable=0;points=[[0,0.5],[1,0.5]];portConstraint=eastwest;whiteSpace=wrap;html=1;" parent="huh2MVqWgcdqxAIrrXTs-31" vertex="1">
          <mxGeometry y="52" width="120" height="26" as="geometry" />
        </mxCell>
        <mxCell id="huh2MVqWgcdqxAIrrXTs-34" value="+&amp;nbsp;&lt;span style=&quot;text-align: center;&quot;&gt;-o, --output&lt;/span&gt;" style="text;strokeColor=none;fillColor=none;align=left;verticalAlign=top;spacingLeft=4;spacingRight=4;overflow=hidden;rotatable=0;points=[[0,0.5],[1,0.5]];portConstraint=eastwest;whiteSpace=wrap;html=1;" parent="huh2MVqWgcdqxAIrrXTs-31" vertex="1">
          <mxGeometry y="78" width="120" height="26" as="geometry" />
        </mxCell>
        <mxCell id="huh2MVqWgcdqxAIrrXTs-35" style="edgeStyle=orthogonalEdgeStyle;rounded=0;orthogonalLoop=1;jettySize=auto;html=1;exitX=0.25;exitY=1;exitDx=0;exitDy=0;" parent="w8AtmdIf0ijRNV2Yn8WI-1" source="huh2MVqWgcdqxAIrrXTs-36" target="huh2MVqWgcdqxAIrrXTs-39" edge="1">
          <mxGeometry relative="1" as="geometry" />
        </mxCell>
        <mxCell id="huh2MVqWgcdqxAIrrXTs-36" value="POST /audio/convert" style="whiteSpace=wrap;html=1;" parent="w8AtmdIf0ijRNV2Yn8WI-1" vertex="1">
          <mxGeometry x="310" y="260" width="280" height="20" as="geometry" />
        </mxCell>
        <mxCell id="huh2MVqWgcdqxAIrrXTs-37" value="" style="endArrow=none;dashed=1;html=1;rounded=0;" parent="w8AtmdIf0ijRNV2Yn8WI-1" edge="1">
          <mxGeometry width="50" height="50" relative="1" as="geometry">
            <mxPoint x="30" y="120" as="sourcePoint" />
            <mxPoint x="30" y="120" as="targetPoint" />
            <Array as="points">
              <mxPoint x="610" y="120" />
              <mxPoint x="610" y="420" />
              <mxPoint x="30" y="420" />
            </Array>
          </mxGeometry>
        </mxCell>
        <mxCell id="huh2MVqWgcdqxAIrrXTs-38" style="edgeStyle=orthogonalEdgeStyle;rounded=0;orthogonalLoop=1;jettySize=auto;html=1;entryX=0.5;entryY=0;entryDx=0;entryDy=0;" parent="w8AtmdIf0ijRNV2Yn8WI-1" source="huh2MVqWgcdqxAIrrXTs-39" target="huh2MVqWgcdqxAIrrXTs-9" edge="1">
          <mxGeometry relative="1" as="geometry" />
        </mxCell>
        <mxCell id="huh2MVqWgcdqxAIrrXTs-39" value="Request" style="swimlane;fontStyle=0;childLayout=stackLayout;horizontal=1;startSize=26;fillColor=none;horizontalStack=0;resizeParent=1;resizeParentMax=0;resizeLast=0;collapsible=1;marginBottom=0;whiteSpace=wrap;html=1;" parent="w8AtmdIf0ijRNV2Yn8WI-1" vertex="1">
          <mxGeometry x="320" y="320" width="120" height="78" as="geometry" />
        </mxCell>
        <mxCell id="huh2MVqWgcdqxAIrrXTs-40" value="export_file_format" style="text;strokeColor=none;fillColor=none;align=left;verticalAlign=top;spacingLeft=4;spacingRight=4;overflow=hidden;rotatable=0;points=[[0,0.5],[1,0.5]];portConstraint=eastwest;whiteSpace=wrap;html=1;" parent="huh2MVqWgcdqxAIrrXTs-39" vertex="1">
          <mxGeometry y="26" width="120" height="26" as="geometry" />
        </mxCell>
        <mxCell id="huh2MVqWgcdqxAIrrXTs-41" value="@file" style="text;strokeColor=none;fillColor=none;align=left;verticalAlign=top;spacingLeft=4;spacingRight=4;overflow=hidden;rotatable=0;points=[[0,0.5],[1,0.5]];portConstraint=eastwest;whiteSpace=wrap;html=1;" parent="huh2MVqWgcdqxAIrrXTs-39" vertex="1">
          <mxGeometry y="52" width="120" height="26" as="geometry" />
        </mxCell>
        <mxCell id="huh2MVqWgcdqxAIrrXTs-42" style="edgeStyle=orthogonalEdgeStyle;rounded=0;orthogonalLoop=1;jettySize=auto;html=1;entryX=0.75;entryY=1;entryDx=0;entryDy=0;" parent="w8AtmdIf0ijRNV2Yn8WI-1" source="huh2MVqWgcdqxAIrrXTs-43" target="huh2MVqWgcdqxAIrrXTs-36" edge="1">
          <mxGeometry relative="1" as="geometry" />
        </mxCell>
        <mxCell id="huh2MVqWgcdqxAIrrXTs-43" value="Response" style="swimlane;fontStyle=0;childLayout=stackLayout;horizontal=1;startSize=26;fillColor=none;horizontalStack=0;resizeParent=1;resizeParentMax=0;resizeLast=0;collapsible=1;marginBottom=0;whiteSpace=wrap;html=1;" parent="w8AtmdIf0ijRNV2Yn8WI-1" vertex="1">
          <mxGeometry x="460" y="320" width="120" height="78" as="geometry" />
        </mxCell>
        <mxCell id="huh2MVqWgcdqxAIrrXTs-44" value="status" style="text;strokeColor=none;fillColor=none;align=left;verticalAlign=top;spacingLeft=4;spacingRight=4;overflow=hidden;rotatable=0;points=[[0,0.5],[1,0.5]];portConstraint=eastwest;whiteSpace=wrap;html=1;" parent="huh2MVqWgcdqxAIrrXTs-43" vertex="1">
          <mxGeometry y="26" width="120" height="26" as="geometry" />
        </mxCell>
        <mxCell id="huh2MVqWgcdqxAIrrXTs-45" value="@attachment" style="text;strokeColor=none;fillColor=none;align=left;verticalAlign=top;spacingLeft=4;spacingRight=4;overflow=hidden;rotatable=0;points=[[0,0.5],[1,0.5]];portConstraint=eastwest;whiteSpace=wrap;html=1;" parent="huh2MVqWgcdqxAIrrXTs-43" vertex="1">
          <mxGeometry y="52" width="120" height="26" as="geometry" />
        </mxCell>
        <mxCell id="huh2MVqWgcdqxAIrrXTs-46" value="&lt;b&gt;Backend&lt;/b&gt;" style="text;html=1;align=center;verticalAlign=middle;resizable=0;points=[];autosize=1;strokeColor=none;fillColor=none;" parent="w8AtmdIf0ijRNV2Yn8WI-1" vertex="1">
          <mxGeometry x="30" y="90" width="70" height="30" as="geometry" />
        </mxCell>
        <mxCell id="huh2MVqWgcdqxAIrrXTs-47" value="" style="endArrow=none;dashed=1;html=1;rounded=0;" parent="w8AtmdIf0ijRNV2Yn8WI-1" edge="1">
          <mxGeometry width="50" height="50" relative="1" as="geometry">
            <mxPoint x="10" y="70" as="sourcePoint" />
            <mxPoint x="10" y="70" as="targetPoint" />
            <Array as="points">
              <mxPoint x="630" y="70" />
              <mxPoint x="630" y="440" />
              <mxPoint x="10" y="440" />
            </Array>
          </mxGeometry>
        </mxCell>
        <mxCell id="huh2MVqWgcdqxAIrrXTs-48" value="&lt;b&gt;WUI&lt;/b&gt;" style="text;html=1;align=center;verticalAlign=middle;resizable=0;points=[];autosize=1;strokeColor=none;fillColor=none;" parent="w8AtmdIf0ijRNV2Yn8WI-1" vertex="1">
          <mxGeometry x="10" y="40" width="50" height="30" as="geometry" />
        </mxCell>
        <mxCell id="kl0BIlMkP4CFFoFLszeI-11" style="edgeStyle=orthogonalEdgeStyle;rounded=0;orthogonalLoop=1;jettySize=auto;html=1;" parent="w8AtmdIf0ijRNV2Yn8WI-1" source="huh2MVqWgcdqxAIrrXTs-50" target="huh2MVqWgcdqxAIrrXTs-36" edge="1">
          <mxGeometry relative="1" as="geometry" />
        </mxCell>
        <mxCell id="kl0BIlMkP4CFFoFLszeI-15" style="edgeStyle=orthogonalEdgeStyle;rounded=0;orthogonalLoop=1;jettySize=auto;html=1;" parent="w8AtmdIf0ijRNV2Yn8WI-1" source="huh2MVqWgcdqxAIrrXTs-50" target="kl0BIlMkP4CFFoFLszeI-2" edge="1">
          <mxGeometry relative="1" as="geometry">
            <Array as="points">
              <mxPoint x="380" y="240" />
              <mxPoint x="175" y="240" />
            </Array>
          </mxGeometry>
        </mxCell>
        <mxCell id="huh2MVqWgcdqxAIrrXTs-50" value="routes" style="whiteSpace=wrap;html=1;" parent="w8AtmdIf0ijRNV2Yn8WI-1" vertex="1">
          <mxGeometry x="340" y="200" width="80" height="20" as="geometry" />
        </mxCell>
        <mxCell id="kl0BIlMkP4CFFoFLszeI-1" style="edgeStyle=orthogonalEdgeStyle;rounded=0;orthogonalLoop=1;jettySize=auto;html=1;" parent="w8AtmdIf0ijRNV2Yn8WI-1" source="kl0BIlMkP4CFFoFLszeI-0" target="huh2MVqWgcdqxAIrrXTs-50" edge="1">
          <mxGeometry relative="1" as="geometry" />
        </mxCell>
        <mxCell id="kl0BIlMkP4CFFoFLszeI-0" value="FastAPI" style="whiteSpace=wrap;html=1;" parent="w8AtmdIf0ijRNV2Yn8WI-1" vertex="1">
          <mxGeometry x="340" y="140" width="80" height="20" as="geometry" />
        </mxCell>
        <mxCell id="kl0BIlMkP4CFFoFLszeI-2" value="GET /audio/convert" style="whiteSpace=wrap;html=1;" parent="w8AtmdIf0ijRNV2Yn8WI-1" vertex="1">
          <mxGeometry x="110" y="260" width="120" height="20" as="geometry" />
        </mxCell>
        <mxCell id="kl0BIlMkP4CFFoFLszeI-8" style="edgeStyle=orthogonalEdgeStyle;rounded=0;orthogonalLoop=1;jettySize=auto;html=1;entryX=0.5;entryY=1;entryDx=0;entryDy=0;" parent="w8AtmdIf0ijRNV2Yn8WI-1" source="kl0BIlMkP4CFFoFLszeI-5" target="kl0BIlMkP4CFFoFLszeI-2" edge="1">
          <mxGeometry relative="1" as="geometry" />
        </mxCell>
        <mxCell id="kl0BIlMkP4CFFoFLszeI-16" style="edgeStyle=orthogonalEdgeStyle;rounded=0;orthogonalLoop=1;jettySize=auto;html=1;" parent="w8AtmdIf0ijRNV2Yn8WI-1" source="kl0BIlMkP4CFFoFLszeI-5" target="huh2MVqWgcdqxAIrrXTs-9" edge="1">
          <mxGeometry relative="1" as="geometry">
            <Array as="points">
              <mxPoint x="175" y="460" />
              <mxPoint x="380" y="460" />
            </Array>
          </mxGeometry>
        </mxCell>
        <mxCell id="kl0BIlMkP4CFFoFLszeI-5" value="Response" style="swimlane;fontStyle=0;childLayout=stackLayout;horizontal=1;startSize=26;fillColor=none;horizontalStack=0;resizeParent=1;resizeParentMax=0;resizeLast=0;collapsible=1;marginBottom=0;whiteSpace=wrap;html=1;" parent="w8AtmdIf0ijRNV2Yn8WI-1" vertex="1">
          <mxGeometry x="50" y="320" width="240" height="78" as="geometry" />
        </mxCell>
        <mxCell id="kl0BIlMkP4CFFoFLszeI-6" value="SUPPORTED_FILE_EXTENSIONS" style="text;strokeColor=none;fillColor=none;align=left;verticalAlign=top;spacingLeft=4;spacingRight=4;overflow=hidden;rotatable=0;points=[[0,0.5],[1,0.5]];portConstraint=eastwest;whiteSpace=wrap;html=1;" parent="kl0BIlMkP4CFFoFLszeI-5" vertex="1">
          <mxGeometry y="26" width="240" height="26" as="geometry" />
        </mxCell>
        <mxCell id="kl0BIlMkP4CFFoFLszeI-7" value="SUPPORTED_EXPORT_FILE_FORMATS" style="text;strokeColor=none;fillColor=none;align=left;verticalAlign=top;spacingLeft=4;spacingRight=4;overflow=hidden;rotatable=0;points=[[0,0.5],[1,0.5]];portConstraint=eastwest;whiteSpace=wrap;html=1;" parent="kl0BIlMkP4CFFoFLszeI-5" vertex="1">
          <mxGeometry y="52" width="240" height="26" as="geometry" />
        </mxCell>
      </root>
    </mxGraphModel>
  </diagram>
  <diagram name="WUI_BACKEND_DRF" id="4irpc_WgyiHiLni3IX0V">
    <mxGraphModel dx="1320" dy="1204" grid="1" gridSize="10" guides="1" tooltips="1" connect="1" arrows="1" fold="1" page="1" pageScale="1" pageWidth="850" pageHeight="1100" math="0" shadow="0">
      <root>
        <mxCell id="yLspRcfhWub7Kl2Q3LLx-0" />
        <mxCell id="yLspRcfhWub7Kl2Q3LLx-1" parent="yLspRcfhWub7Kl2Q3LLx-0" />
        <mxCell id="yLspRcfhWub7Kl2Q3LLx-2" value="" style="endArrow=none;dashed=1;html=1;rounded=0;" edge="1" parent="yLspRcfhWub7Kl2Q3LLx-1">
          <mxGeometry width="50" height="50" relative="1" as="geometry">
            <mxPoint x="60" y="540" as="sourcePoint" />
            <mxPoint x="60" y="540" as="targetPoint" />
            <Array as="points">
              <mxPoint x="220" y="540" />
              <mxPoint x="220" y="680" />
              <mxPoint x="60" y="680" />
            </Array>
          </mxGeometry>
        </mxCell>
        <mxCell id="yLspRcfhWub7Kl2Q3LLx-3" value="&lt;b&gt;CLI&lt;/b&gt;" style="text;html=1;align=center;verticalAlign=middle;resizable=0;points=[];autosize=1;strokeColor=none;fillColor=none;" vertex="1" parent="yLspRcfhWub7Kl2Q3LLx-1">
          <mxGeometry x="60" y="510" width="40" height="30" as="geometry" />
        </mxCell>
        <mxCell id="yLspRcfhWub7Kl2Q3LLx-4" value="" style="endArrow=none;dashed=1;html=1;rounded=0;entryX=-0.02;entryY=1.013;entryDx=0;entryDy=0;entryPerimeter=0;" edge="1" parent="yLspRcfhWub7Kl2Q3LLx-1" target="yLspRcfhWub7Kl2Q3LLx-5">
          <mxGeometry width="50" height="50" relative="1" as="geometry">
            <mxPoint x="260" y="540" as="sourcePoint" />
            <mxPoint x="210" y="1060" as="targetPoint" />
            <Array as="points">
              <mxPoint x="600" y="540" />
              <mxPoint x="600" y="860" />
              <mxPoint x="600" y="1090" />
              <mxPoint x="420" y="1090" />
              <mxPoint x="259" y="1090" />
            </Array>
          </mxGeometry>
        </mxCell>
        <mxCell id="yLspRcfhWub7Kl2Q3LLx-5" value="&lt;b&gt;API&lt;/b&gt;" style="text;html=1;align=center;verticalAlign=middle;resizable=0;points=[];autosize=1;strokeColor=none;fillColor=none;" vertex="1" parent="yLspRcfhWub7Kl2Q3LLx-1">
          <mxGeometry x="260" y="510" width="40" height="30" as="geometry" />
        </mxCell>
        <mxCell id="yLspRcfhWub7Kl2Q3LLx-6" style="edgeStyle=orthogonalEdgeStyle;rounded=0;orthogonalLoop=1;jettySize=auto;html=1;" edge="1" parent="yLspRcfhWub7Kl2Q3LLx-1" source="yLspRcfhWub7Kl2Q3LLx-7" target="yLspRcfhWub7Kl2Q3LLx-15">
          <mxGeometry relative="1" as="geometry" />
        </mxCell>
        <mxCell id="yLspRcfhWub7Kl2Q3LLx-7" value="convert" style="whiteSpace=wrap;html=1;" vertex="1" parent="yLspRcfhWub7Kl2Q3LLx-1">
          <mxGeometry x="390" y="700" width="80" height="20" as="geometry" />
        </mxCell>
        <mxCell id="yLspRcfhWub7Kl2Q3LLx-8" style="edgeStyle=orthogonalEdgeStyle;rounded=0;orthogonalLoop=1;jettySize=auto;html=1;exitX=0.25;exitY=1;exitDx=0;exitDy=0;" edge="1" parent="yLspRcfhWub7Kl2Q3LLx-1" source="yLspRcfhWub7Kl2Q3LLx-11" target="yLspRcfhWub7Kl2Q3LLx-12">
          <mxGeometry relative="1" as="geometry" />
        </mxCell>
        <mxCell id="yLspRcfhWub7Kl2Q3LLx-9" style="edgeStyle=orthogonalEdgeStyle;rounded=0;orthogonalLoop=1;jettySize=auto;html=1;entryX=0.5;entryY=0;entryDx=0;entryDy=0;" edge="1" parent="yLspRcfhWub7Kl2Q3LLx-1" source="yLspRcfhWub7Kl2Q3LLx-11" target="yLspRcfhWub7Kl2Q3LLx-26">
          <mxGeometry relative="1" as="geometry" />
        </mxCell>
        <mxCell id="yLspRcfhWub7Kl2Q3LLx-10" style="edgeStyle=orthogonalEdgeStyle;rounded=0;orthogonalLoop=1;jettySize=auto;html=1;exitX=0.75;exitY=1;exitDx=0;exitDy=0;entryX=0.5;entryY=0;entryDx=0;entryDy=0;" edge="1" parent="yLspRcfhWub7Kl2Q3LLx-1" source="yLspRcfhWub7Kl2Q3LLx-11" target="yLspRcfhWub7Kl2Q3LLx-7">
          <mxGeometry relative="1" as="geometry" />
        </mxCell>
        <mxCell id="yLspRcfhWub7Kl2Q3LLx-11" value="Sequential Function Call Order" style="whiteSpace=wrap;html=1;" vertex="1" parent="yLspRcfhWub7Kl2Q3LLx-1">
          <mxGeometry x="280" y="560" width="200" height="20" as="geometry" />
        </mxCell>
        <mxCell id="yLspRcfhWub7Kl2Q3LLx-12" value="set_input" style="whiteSpace=wrap;html=1;" vertex="1" parent="yLspRcfhWub7Kl2Q3LLx-1">
          <mxGeometry x="290" y="620" width="80" height="20" as="geometry" />
        </mxCell>
        <mxCell id="yLspRcfhWub7Kl2Q3LLx-13" value="" style="endArrow=none;dashed=1;html=1;rounded=0;" edge="1" parent="yLspRcfhWub7Kl2Q3LLx-1">
          <mxGeometry width="50" height="50" relative="1" as="geometry">
            <mxPoint x="280" y="760" as="sourcePoint" />
            <mxPoint x="280" y="760" as="targetPoint" />
            <Array as="points">
              <mxPoint x="440" y="760" />
              <mxPoint x="580" y="760" />
              <mxPoint x="580" y="1070" />
              <mxPoint x="280" y="1070" />
            </Array>
          </mxGeometry>
        </mxCell>
        <mxCell id="yLspRcfhWub7Kl2Q3LLx-14" value="&lt;b&gt;APP&lt;/b&gt;" style="text;html=1;align=center;verticalAlign=middle;resizable=0;points=[];autosize=1;strokeColor=none;fillColor=none;" vertex="1" parent="yLspRcfhWub7Kl2Q3LLx-1">
          <mxGeometry x="280" y="730" width="50" height="30" as="geometry" />
        </mxCell>
        <mxCell id="yLspRcfhWub7Kl2Q3LLx-15" value="&lt;span style=&quot;font-weight: normal;&quot;&gt;Converter&lt;/span&gt;" style="swimlane;fontStyle=1;align=center;verticalAlign=top;childLayout=stackLayout;horizontal=1;startSize=26;horizontalStack=0;resizeParent=1;resizeParentMax=0;resizeLast=0;collapsible=1;marginBottom=0;whiteSpace=wrap;html=1;" vertex="1" parent="yLspRcfhWub7Kl2Q3LLx-1">
          <mxGeometry x="300" y="780" width="260" height="268" as="geometry" />
        </mxCell>
        <mxCell id="yLspRcfhWub7Kl2Q3LLx-16" value="+ SUPPORTED_FILE_EXTENSIONS" style="text;strokeColor=none;fillColor=none;align=left;verticalAlign=top;spacingLeft=4;spacingRight=4;overflow=hidden;rotatable=0;points=[[0,0.5],[1,0.5]];portConstraint=eastwest;whiteSpace=wrap;html=1;" vertex="1" parent="yLspRcfhWub7Kl2Q3LLx-15">
          <mxGeometry y="26" width="260" height="26" as="geometry" />
        </mxCell>
        <mxCell id="yLspRcfhWub7Kl2Q3LLx-17" value="+ SUPPORTED_EXPORT_FILE_FORMAT" style="text;strokeColor=none;fillColor=none;align=left;verticalAlign=top;spacingLeft=4;spacingRight=4;overflow=hidden;rotatable=0;points=[[0,0.5],[1,0.5]];portConstraint=eastwest;whiteSpace=wrap;html=1;" vertex="1" parent="yLspRcfhWub7Kl2Q3LLx-15">
          <mxGeometry y="52" width="260" height="26" as="geometry" />
        </mxCell>
        <mxCell id="yLspRcfhWub7Kl2Q3LLx-18" value="+ MAP_FILE_FORMAT_TO_FILE_MIMETYPE" style="text;strokeColor=none;fillColor=none;align=left;verticalAlign=top;spacingLeft=4;spacingRight=4;overflow=hidden;rotatable=0;points=[[0,0.5],[1,0.5]];portConstraint=eastwest;whiteSpace=wrap;html=1;" vertex="1" parent="yLspRcfhWub7Kl2Q3LLx-15">
          <mxGeometry y="78" width="260" height="26" as="geometry" />
        </mxCell>
        <mxCell id="yLspRcfhWub7Kl2Q3LLx-19" value="- _filepath: str" style="text;strokeColor=none;fillColor=none;align=left;verticalAlign=top;spacingLeft=4;spacingRight=4;overflow=hidden;rotatable=0;points=[[0,0.5],[1,0.5]];portConstraint=eastwest;whiteSpace=wrap;html=1;" vertex="1" parent="yLspRcfhWub7Kl2Q3LLx-15">
          <mxGeometry y="104" width="260" height="26" as="geometry" />
        </mxCell>
        <mxCell id="yLspRcfhWub7Kl2Q3LLx-20" value="- _export_file_format: str" style="text;strokeColor=none;fillColor=none;align=left;verticalAlign=top;spacingLeft=4;spacingRight=4;overflow=hidden;rotatable=0;points=[[0,0.5],[1,0.5]];portConstraint=eastwest;whiteSpace=wrap;html=1;" vertex="1" parent="yLspRcfhWub7Kl2Q3LLx-15">
          <mxGeometry y="130" width="260" height="26" as="geometry" />
        </mxCell>
        <mxCell id="yLspRcfhWub7Kl2Q3LLx-21" value="" style="line;strokeWidth=1;fillColor=none;align=left;verticalAlign=middle;spacingTop=-1;spacingLeft=3;spacingRight=3;rotatable=0;labelPosition=right;points=[];portConstraint=eastwest;strokeColor=inherit;" vertex="1" parent="yLspRcfhWub7Kl2Q3LLx-15">
          <mxGeometry y="156" width="260" height="8" as="geometry" />
        </mxCell>
        <mxCell id="yLspRcfhWub7Kl2Q3LLx-22" value="- _join_sequence(items: Sequence[str]): str" style="text;strokeColor=none;fillColor=none;align=left;verticalAlign=top;spacingLeft=4;spacingRight=4;overflow=hidden;rotatable=0;points=[[0,0.5],[1,0.5]];portConstraint=eastwest;whiteSpace=wrap;html=1;" vertex="1" parent="yLspRcfhWub7Kl2Q3LLx-15">
          <mxGeometry y="164" width="260" height="26" as="geometry" />
        </mxCell>
        <mxCell id="yLspRcfhWub7Kl2Q3LLx-23" value="+ set_input(filepath: str): None" style="text;strokeColor=none;fillColor=none;align=left;verticalAlign=top;spacingLeft=4;spacingRight=4;overflow=hidden;rotatable=0;points=[[0,0.5],[1,0.5]];portConstraint=eastwest;whiteSpace=wrap;html=1;" vertex="1" parent="yLspRcfhWub7Kl2Q3LLx-15">
          <mxGeometry y="190" width="260" height="26" as="geometry" />
        </mxCell>
        <mxCell id="yLspRcfhWub7Kl2Q3LLx-24" value="+ set_output(export_file_format: str): None" style="text;strokeColor=none;fillColor=none;align=left;verticalAlign=top;spacingLeft=4;spacingRight=4;overflow=hidden;rotatable=0;points=[[0,0.5],[1,0.5]];portConstraint=eastwest;whiteSpace=wrap;html=1;" vertex="1" parent="yLspRcfhWub7Kl2Q3LLx-15">
          <mxGeometry y="216" width="260" height="26" as="geometry" />
        </mxCell>
        <mxCell id="yLspRcfhWub7Kl2Q3LLx-25" value="+ convert(): Bytes" style="text;strokeColor=none;fillColor=none;align=left;verticalAlign=top;spacingLeft=4;spacingRight=4;overflow=hidden;rotatable=0;points=[[0,0.5],[1,0.5]];portConstraint=eastwest;whiteSpace=wrap;html=1;" vertex="1" parent="yLspRcfhWub7Kl2Q3LLx-15">
          <mxGeometry y="242" width="260" height="26" as="geometry" />
        </mxCell>
        <mxCell id="yLspRcfhWub7Kl2Q3LLx-26" value="set_output" style="whiteSpace=wrap;html=1;" vertex="1" parent="yLspRcfhWub7Kl2Q3LLx-1">
          <mxGeometry x="340" y="660" width="80" height="20" as="geometry" />
        </mxCell>
        <mxCell id="yLspRcfhWub7Kl2Q3LLx-27" value="" style="endArrow=none;dashed=1;html=1;rounded=0;" edge="1" parent="yLspRcfhWub7Kl2Q3LLx-1">
          <mxGeometry width="50" height="50" relative="1" as="geometry">
            <mxPoint x="640" y="540" as="sourcePoint" />
            <mxPoint x="640" y="540" as="targetPoint" />
            <Array as="points">
              <mxPoint x="740" y="540" />
              <mxPoint x="840" y="540" />
              <mxPoint x="840" y="680" />
              <mxPoint x="640" y="680" />
            </Array>
          </mxGeometry>
        </mxCell>
        <mxCell id="yLspRcfhWub7Kl2Q3LLx-28" style="edgeStyle=orthogonalEdgeStyle;rounded=0;orthogonalLoop=1;jettySize=auto;html=1;entryX=0.75;entryY=0;entryDx=0;entryDy=0;" edge="1" parent="yLspRcfhWub7Kl2Q3LLx-1" target="yLspRcfhWub7Kl2Q3LLx-11">
          <mxGeometry relative="1" as="geometry">
            <Array as="points">
              <mxPoint x="740" y="500" />
              <mxPoint x="430" y="500" />
            </Array>
            <mxPoint x="740" y="560" as="sourcePoint" />
            <mxPoint x="440" y="560" as="targetPoint" />
          </mxGeometry>
        </mxCell>
        <mxCell id="yLspRcfhWub7Kl2Q3LLx-29" value="TestConverter" style="swimlane;fontStyle=0;childLayout=stackLayout;horizontal=1;startSize=26;fillColor=none;horizontalStack=0;resizeParent=1;resizeParentMax=0;resizeLast=0;collapsible=1;marginBottom=0;whiteSpace=wrap;html=1;" vertex="1" parent="yLspRcfhWub7Kl2Q3LLx-1">
          <mxGeometry x="660" y="560" width="160" height="104" as="geometry" />
        </mxCell>
        <mxCell id="yLspRcfhWub7Kl2Q3LLx-30" value="+ test_input" style="text;strokeColor=none;fillColor=none;align=left;verticalAlign=top;spacingLeft=4;spacingRight=4;overflow=hidden;rotatable=0;points=[[0,0.5],[1,0.5]];portConstraint=eastwest;whiteSpace=wrap;html=1;" vertex="1" parent="yLspRcfhWub7Kl2Q3LLx-29">
          <mxGeometry y="26" width="160" height="26" as="geometry" />
        </mxCell>
        <mxCell id="yLspRcfhWub7Kl2Q3LLx-31" value="+ test_output" style="text;strokeColor=none;fillColor=none;align=left;verticalAlign=top;spacingLeft=4;spacingRight=4;overflow=hidden;rotatable=0;points=[[0,0.5],[1,0.5]];portConstraint=eastwest;whiteSpace=wrap;html=1;" vertex="1" parent="yLspRcfhWub7Kl2Q3LLx-29">
          <mxGeometry y="52" width="160" height="26" as="geometry" />
        </mxCell>
        <mxCell id="yLspRcfhWub7Kl2Q3LLx-32" value="+ test_convert" style="text;strokeColor=none;fillColor=none;align=left;verticalAlign=top;spacingLeft=4;spacingRight=4;overflow=hidden;rotatable=0;points=[[0,0.5],[1,0.5]];portConstraint=eastwest;whiteSpace=wrap;html=1;" vertex="1" parent="yLspRcfhWub7Kl2Q3LLx-29">
          <mxGeometry y="78" width="160" height="26" as="geometry" />
        </mxCell>
        <mxCell id="yLspRcfhWub7Kl2Q3LLx-33" value="&lt;b&gt;API TEST&lt;/b&gt;" style="text;html=1;align=center;verticalAlign=middle;resizable=0;points=[];autosize=1;strokeColor=none;fillColor=none;" vertex="1" parent="yLspRcfhWub7Kl2Q3LLx-1">
          <mxGeometry x="640" y="510" width="80" height="30" as="geometry" />
        </mxCell>
        <mxCell id="yLspRcfhWub7Kl2Q3LLx-34" style="edgeStyle=orthogonalEdgeStyle;rounded=0;orthogonalLoop=1;jettySize=auto;html=1;entryX=0.25;entryY=0;entryDx=0;entryDy=0;" edge="1" parent="yLspRcfhWub7Kl2Q3LLx-1" source="yLspRcfhWub7Kl2Q3LLx-35" target="yLspRcfhWub7Kl2Q3LLx-11">
          <mxGeometry relative="1" as="geometry">
            <Array as="points">
              <mxPoint x="140" y="500" />
              <mxPoint x="330" y="500" />
            </Array>
          </mxGeometry>
        </mxCell>
        <mxCell id="yLspRcfhWub7Kl2Q3LLx-35" value="main" style="swimlane;fontStyle=0;childLayout=stackLayout;horizontal=1;startSize=26;fillColor=none;horizontalStack=0;resizeParent=1;resizeParentMax=0;resizeLast=0;collapsible=1;marginBottom=0;whiteSpace=wrap;html=1;" vertex="1" parent="yLspRcfhWub7Kl2Q3LLx-1">
          <mxGeometry x="80" y="560" width="120" height="104" as="geometry" />
        </mxCell>
        <mxCell id="yLspRcfhWub7Kl2Q3LLx-36" value="+&amp;nbsp;&lt;span style=&quot;text-align: center;&quot;&gt;-h, --help&lt;/span&gt;" style="text;strokeColor=none;fillColor=none;align=left;verticalAlign=top;spacingLeft=4;spacingRight=4;overflow=hidden;rotatable=0;points=[[0,0.5],[1,0.5]];portConstraint=eastwest;whiteSpace=wrap;html=1;" vertex="1" parent="yLspRcfhWub7Kl2Q3LLx-35">
          <mxGeometry y="26" width="120" height="26" as="geometry" />
        </mxCell>
        <mxCell id="yLspRcfhWub7Kl2Q3LLx-37" value="+&amp;nbsp;&lt;span style=&quot;text-align: center;&quot;&gt;-i, --input&lt;/span&gt;" style="text;strokeColor=none;fillColor=none;align=left;verticalAlign=top;spacingLeft=4;spacingRight=4;overflow=hidden;rotatable=0;points=[[0,0.5],[1,0.5]];portConstraint=eastwest;whiteSpace=wrap;html=1;" vertex="1" parent="yLspRcfhWub7Kl2Q3LLx-35">
          <mxGeometry y="52" width="120" height="26" as="geometry" />
        </mxCell>
        <mxCell id="yLspRcfhWub7Kl2Q3LLx-38" value="+&amp;nbsp;&lt;span style=&quot;text-align: center;&quot;&gt;-o, --output&lt;/span&gt;" style="text;strokeColor=none;fillColor=none;align=left;verticalAlign=top;spacingLeft=4;spacingRight=4;overflow=hidden;rotatable=0;points=[[0,0.5],[1,0.5]];portConstraint=eastwest;whiteSpace=wrap;html=1;" vertex="1" parent="yLspRcfhWub7Kl2Q3LLx-35">
          <mxGeometry y="78" width="120" height="26" as="geometry" />
        </mxCell>
        <mxCell id="yLspRcfhWub7Kl2Q3LLx-39" style="edgeStyle=orthogonalEdgeStyle;rounded=0;orthogonalLoop=1;jettySize=auto;html=1;exitX=0.25;exitY=1;exitDx=0;exitDy=0;" edge="1" parent="yLspRcfhWub7Kl2Q3LLx-1" source="yLspRcfhWub7Kl2Q3LLx-40" target="yLspRcfhWub7Kl2Q3LLx-43">
          <mxGeometry relative="1" as="geometry" />
        </mxCell>
        <mxCell id="yLspRcfhWub7Kl2Q3LLx-40" value="POST /audio/convert" style="whiteSpace=wrap;html=1;" vertex="1" parent="yLspRcfhWub7Kl2Q3LLx-1">
          <mxGeometry x="310" y="260" width="280" height="20" as="geometry" />
        </mxCell>
        <mxCell id="yLspRcfhWub7Kl2Q3LLx-41" value="" style="endArrow=none;dashed=1;html=1;rounded=0;" edge="1" parent="yLspRcfhWub7Kl2Q3LLx-1">
          <mxGeometry width="50" height="50" relative="1" as="geometry">
            <mxPoint x="30" y="120" as="sourcePoint" />
            <mxPoint x="30" y="120" as="targetPoint" />
            <Array as="points">
              <mxPoint x="610" y="120" />
              <mxPoint x="610" y="420" />
              <mxPoint x="30" y="420" />
            </Array>
          </mxGeometry>
        </mxCell>
        <mxCell id="yLspRcfhWub7Kl2Q3LLx-42" style="edgeStyle=orthogonalEdgeStyle;rounded=0;orthogonalLoop=1;jettySize=auto;html=1;entryX=0.5;entryY=0;entryDx=0;entryDy=0;" edge="1" parent="yLspRcfhWub7Kl2Q3LLx-1" source="yLspRcfhWub7Kl2Q3LLx-43" target="yLspRcfhWub7Kl2Q3LLx-11">
          <mxGeometry relative="1" as="geometry" />
        </mxCell>
        <mxCell id="yLspRcfhWub7Kl2Q3LLx-43" value="Request" style="swimlane;fontStyle=0;childLayout=stackLayout;horizontal=1;startSize=26;fillColor=none;horizontalStack=0;resizeParent=1;resizeParentMax=0;resizeLast=0;collapsible=1;marginBottom=0;whiteSpace=wrap;html=1;" vertex="1" parent="yLspRcfhWub7Kl2Q3LLx-1">
          <mxGeometry x="320" y="320" width="120" height="78" as="geometry" />
        </mxCell>
        <mxCell id="yLspRcfhWub7Kl2Q3LLx-44" value="export_file_format" style="text;strokeColor=none;fillColor=none;align=left;verticalAlign=top;spacingLeft=4;spacingRight=4;overflow=hidden;rotatable=0;points=[[0,0.5],[1,0.5]];portConstraint=eastwest;whiteSpace=wrap;html=1;" vertex="1" parent="yLspRcfhWub7Kl2Q3LLx-43">
          <mxGeometry y="26" width="120" height="26" as="geometry" />
        </mxCell>
        <mxCell id="yLspRcfhWub7Kl2Q3LLx-45" value="@file" style="text;strokeColor=none;fillColor=none;align=left;verticalAlign=top;spacingLeft=4;spacingRight=4;overflow=hidden;rotatable=0;points=[[0,0.5],[1,0.5]];portConstraint=eastwest;whiteSpace=wrap;html=1;" vertex="1" parent="yLspRcfhWub7Kl2Q3LLx-43">
          <mxGeometry y="52" width="120" height="26" as="geometry" />
        </mxCell>
        <mxCell id="yLspRcfhWub7Kl2Q3LLx-46" style="edgeStyle=orthogonalEdgeStyle;rounded=0;orthogonalLoop=1;jettySize=auto;html=1;entryX=0.75;entryY=1;entryDx=0;entryDy=0;" edge="1" parent="yLspRcfhWub7Kl2Q3LLx-1" source="yLspRcfhWub7Kl2Q3LLx-47" target="yLspRcfhWub7Kl2Q3LLx-40">
          <mxGeometry relative="1" as="geometry" />
        </mxCell>
        <mxCell id="yLspRcfhWub7Kl2Q3LLx-47" value="Response" style="swimlane;fontStyle=0;childLayout=stackLayout;horizontal=1;startSize=26;fillColor=none;horizontalStack=0;resizeParent=1;resizeParentMax=0;resizeLast=0;collapsible=1;marginBottom=0;whiteSpace=wrap;html=1;" vertex="1" parent="yLspRcfhWub7Kl2Q3LLx-1">
          <mxGeometry x="460" y="320" width="120" height="78" as="geometry" />
        </mxCell>
        <mxCell id="yLspRcfhWub7Kl2Q3LLx-48" value="status" style="text;strokeColor=none;fillColor=none;align=left;verticalAlign=top;spacingLeft=4;spacingRight=4;overflow=hidden;rotatable=0;points=[[0,0.5],[1,0.5]];portConstraint=eastwest;whiteSpace=wrap;html=1;" vertex="1" parent="yLspRcfhWub7Kl2Q3LLx-47">
          <mxGeometry y="26" width="120" height="26" as="geometry" />
        </mxCell>
        <mxCell id="yLspRcfhWub7Kl2Q3LLx-49" value="@attachment" style="text;strokeColor=none;fillColor=none;align=left;verticalAlign=top;spacingLeft=4;spacingRight=4;overflow=hidden;rotatable=0;points=[[0,0.5],[1,0.5]];portConstraint=eastwest;whiteSpace=wrap;html=1;" vertex="1" parent="yLspRcfhWub7Kl2Q3LLx-47">
          <mxGeometry y="52" width="120" height="26" as="geometry" />
        </mxCell>
        <mxCell id="yLspRcfhWub7Kl2Q3LLx-50" value="&lt;b&gt;Backend&lt;/b&gt;" style="text;html=1;align=center;verticalAlign=middle;resizable=0;points=[];autosize=1;strokeColor=none;fillColor=none;" vertex="1" parent="yLspRcfhWub7Kl2Q3LLx-1">
          <mxGeometry x="30" y="90" width="70" height="30" as="geometry" />
        </mxCell>
        <mxCell id="yLspRcfhWub7Kl2Q3LLx-51" value="" style="endArrow=none;dashed=1;html=1;rounded=0;" edge="1" parent="yLspRcfhWub7Kl2Q3LLx-1">
          <mxGeometry width="50" height="50" relative="1" as="geometry">
            <mxPoint x="10" y="70" as="sourcePoint" />
            <mxPoint x="10" y="70" as="targetPoint" />
            <Array as="points">
              <mxPoint x="630" y="70" />
              <mxPoint x="630" y="440" />
              <mxPoint x="10" y="440" />
            </Array>
          </mxGeometry>
        </mxCell>
        <mxCell id="yLspRcfhWub7Kl2Q3LLx-52" value="&lt;b&gt;WUI&lt;/b&gt;" style="text;html=1;align=center;verticalAlign=middle;resizable=0;points=[];autosize=1;strokeColor=none;fillColor=none;" vertex="1" parent="yLspRcfhWub7Kl2Q3LLx-1">
          <mxGeometry x="10" y="40" width="50" height="30" as="geometry" />
        </mxCell>
        <mxCell id="yLspRcfhWub7Kl2Q3LLx-53" style="edgeStyle=orthogonalEdgeStyle;rounded=0;orthogonalLoop=1;jettySize=auto;html=1;" edge="1" parent="yLspRcfhWub7Kl2Q3LLx-1" source="yLspRcfhWub7Kl2Q3LLx-55" target="yLspRcfhWub7Kl2Q3LLx-40">
          <mxGeometry relative="1" as="geometry" />
        </mxCell>
        <mxCell id="yLspRcfhWub7Kl2Q3LLx-54" style="edgeStyle=orthogonalEdgeStyle;rounded=0;orthogonalLoop=1;jettySize=auto;html=1;" edge="1" parent="yLspRcfhWub7Kl2Q3LLx-1" source="yLspRcfhWub7Kl2Q3LLx-55" target="yLspRcfhWub7Kl2Q3LLx-58">
          <mxGeometry relative="1" as="geometry">
            <Array as="points">
              <mxPoint x="380" y="240" />
              <mxPoint x="175" y="240" />
            </Array>
          </mxGeometry>
        </mxCell>
        <mxCell id="yLspRcfhWub7Kl2Q3LLx-55" value="routes" style="whiteSpace=wrap;html=1;" vertex="1" parent="yLspRcfhWub7Kl2Q3LLx-1">
          <mxGeometry x="340" y="200" width="80" height="20" as="geometry" />
        </mxCell>
        <mxCell id="yLspRcfhWub7Kl2Q3LLx-56" style="edgeStyle=orthogonalEdgeStyle;rounded=0;orthogonalLoop=1;jettySize=auto;html=1;" edge="1" parent="yLspRcfhWub7Kl2Q3LLx-1" source="yLspRcfhWub7Kl2Q3LLx-57" target="yLspRcfhWub7Kl2Q3LLx-55">
          <mxGeometry relative="1" as="geometry" />
        </mxCell>
        <mxCell id="yLspRcfhWub7Kl2Q3LLx-57" value="FastAPI" style="whiteSpace=wrap;html=1;" vertex="1" parent="yLspRcfhWub7Kl2Q3LLx-1">
          <mxGeometry x="280" y="140" width="80" height="20" as="geometry" />
        </mxCell>
        <mxCell id="yLspRcfhWub7Kl2Q3LLx-58" value="GET /audio/convert" style="whiteSpace=wrap;html=1;" vertex="1" parent="yLspRcfhWub7Kl2Q3LLx-1">
          <mxGeometry x="110" y="260" width="120" height="20" as="geometry" />
        </mxCell>
        <mxCell id="yLspRcfhWub7Kl2Q3LLx-59" style="edgeStyle=orthogonalEdgeStyle;rounded=0;orthogonalLoop=1;jettySize=auto;html=1;entryX=0.5;entryY=1;entryDx=0;entryDy=0;" edge="1" parent="yLspRcfhWub7Kl2Q3LLx-1" source="yLspRcfhWub7Kl2Q3LLx-61" target="yLspRcfhWub7Kl2Q3LLx-58">
          <mxGeometry relative="1" as="geometry" />
        </mxCell>
        <mxCell id="yLspRcfhWub7Kl2Q3LLx-60" style="edgeStyle=orthogonalEdgeStyle;rounded=0;orthogonalLoop=1;jettySize=auto;html=1;" edge="1" parent="yLspRcfhWub7Kl2Q3LLx-1" source="yLspRcfhWub7Kl2Q3LLx-61" target="yLspRcfhWub7Kl2Q3LLx-11">
          <mxGeometry relative="1" as="geometry">
            <Array as="points">
              <mxPoint x="175" y="460" />
              <mxPoint x="380" y="460" />
            </Array>
          </mxGeometry>
        </mxCell>
        <mxCell id="yLspRcfhWub7Kl2Q3LLx-61" value="Response" style="swimlane;fontStyle=0;childLayout=stackLayout;horizontal=1;startSize=26;fillColor=none;horizontalStack=0;resizeParent=1;resizeParentMax=0;resizeLast=0;collapsible=1;marginBottom=0;whiteSpace=wrap;html=1;" vertex="1" parent="yLspRcfhWub7Kl2Q3LLx-1">
          <mxGeometry x="50" y="320" width="240" height="78" as="geometry" />
        </mxCell>
        <mxCell id="yLspRcfhWub7Kl2Q3LLx-62" value="SUPPORTED_FILE_EXTENSIONS" style="text;strokeColor=none;fillColor=none;align=left;verticalAlign=top;spacingLeft=4;spacingRight=4;overflow=hidden;rotatable=0;points=[[0,0.5],[1,0.5]];portConstraint=eastwest;whiteSpace=wrap;html=1;" vertex="1" parent="yLspRcfhWub7Kl2Q3LLx-61">
          <mxGeometry y="26" width="240" height="26" as="geometry" />
        </mxCell>
        <mxCell id="yLspRcfhWub7Kl2Q3LLx-63" value="SUPPORTED_EXPORT_FILE_FORMATS" style="text;strokeColor=none;fillColor=none;align=left;verticalAlign=top;spacingLeft=4;spacingRight=4;overflow=hidden;rotatable=0;points=[[0,0.5],[1,0.5]];portConstraint=eastwest;whiteSpace=wrap;html=1;" vertex="1" parent="yLspRcfhWub7Kl2Q3LLx-61">
          <mxGeometry y="52" width="240" height="26" as="geometry" />
        </mxCell>
        <mxCell id="FKo8CUG7AtJSoN8VDDDi-1" style="edgeStyle=orthogonalEdgeStyle;rounded=0;orthogonalLoop=1;jettySize=auto;html=1;" edge="1" parent="yLspRcfhWub7Kl2Q3LLx-1" source="FKo8CUG7AtJSoN8VDDDi-0" target="yLspRcfhWub7Kl2Q3LLx-55">
          <mxGeometry relative="1" as="geometry" />
        </mxCell>
        <mxCell id="FKo8CUG7AtJSoN8VDDDi-0" value="DRF" style="whiteSpace=wrap;html=1;" vertex="1" parent="yLspRcfhWub7Kl2Q3LLx-1">
          <mxGeometry x="400" y="140" width="80" height="20" as="geometry" />
        </mxCell>
      </root>
    </mxGraphModel>
  </diagram>
  <diagram name="WUI_FRONTEND_REACTJS" id="9kRsjmjRb8n3ejjU49sc">
    <mxGraphModel dx="2562" dy="2397" grid="1" gridSize="10" guides="1" tooltips="1" connect="1" arrows="1" fold="1" page="1" pageScale="1" pageWidth="850" pageHeight="1100" math="0" shadow="0">
      <root>
        <mxCell id="PhPgr4dSnUWvsngsLaJ7-0" />
        <mxCell id="PhPgr4dSnUWvsngsLaJ7-1" parent="PhPgr4dSnUWvsngsLaJ7-0" />
        <mxCell id="PhPgr4dSnUWvsngsLaJ7-2" value="" style="endArrow=none;dashed=1;html=1;rounded=0;" parent="PhPgr4dSnUWvsngsLaJ7-1" edge="1">
          <mxGeometry width="50" height="50" relative="1" as="geometry">
            <mxPoint x="60" y="540" as="sourcePoint" />
            <mxPoint x="60" y="540" as="targetPoint" />
            <Array as="points">
              <mxPoint x="220" y="540" />
              <mxPoint x="220" y="680" />
              <mxPoint x="60" y="680" />
            </Array>
          </mxGeometry>
        </mxCell>
        <mxCell id="PhPgr4dSnUWvsngsLaJ7-3" value="&lt;b&gt;CLI&lt;/b&gt;" style="text;html=1;align=center;verticalAlign=middle;resizable=0;points=[];autosize=1;strokeColor=none;fillColor=none;" parent="PhPgr4dSnUWvsngsLaJ7-1" vertex="1">
          <mxGeometry x="60" y="510" width="40" height="30" as="geometry" />
        </mxCell>
        <mxCell id="PhPgr4dSnUWvsngsLaJ7-4" value="" style="endArrow=none;dashed=1;html=1;rounded=0;entryX=-0.02;entryY=1.013;entryDx=0;entryDy=0;entryPerimeter=0;" parent="PhPgr4dSnUWvsngsLaJ7-1" target="PhPgr4dSnUWvsngsLaJ7-5" edge="1">
          <mxGeometry width="50" height="50" relative="1" as="geometry">
            <mxPoint x="260" y="540" as="sourcePoint" />
            <mxPoint x="210" y="1060" as="targetPoint" />
            <Array as="points">
              <mxPoint x="600" y="540" />
              <mxPoint x="600" y="860" />
              <mxPoint x="600" y="1090" />
              <mxPoint x="420" y="1090" />
              <mxPoint x="259" y="1090" />
            </Array>
          </mxGeometry>
        </mxCell>
        <mxCell id="PhPgr4dSnUWvsngsLaJ7-5" value="&lt;b&gt;API&lt;/b&gt;" style="text;html=1;align=center;verticalAlign=middle;resizable=0;points=[];autosize=1;strokeColor=none;fillColor=none;" parent="PhPgr4dSnUWvsngsLaJ7-1" vertex="1">
          <mxGeometry x="260" y="510" width="40" height="30" as="geometry" />
        </mxCell>
        <mxCell id="PhPgr4dSnUWvsngsLaJ7-6" style="edgeStyle=orthogonalEdgeStyle;rounded=0;orthogonalLoop=1;jettySize=auto;html=1;" parent="PhPgr4dSnUWvsngsLaJ7-1" source="PhPgr4dSnUWvsngsLaJ7-7" target="PhPgr4dSnUWvsngsLaJ7-15" edge="1">
          <mxGeometry relative="1" as="geometry" />
        </mxCell>
        <mxCell id="PhPgr4dSnUWvsngsLaJ7-7" value="convert" style="whiteSpace=wrap;html=1;" parent="PhPgr4dSnUWvsngsLaJ7-1" vertex="1">
          <mxGeometry x="390" y="700" width="80" height="20" as="geometry" />
        </mxCell>
        <mxCell id="PhPgr4dSnUWvsngsLaJ7-8" style="edgeStyle=orthogonalEdgeStyle;rounded=0;orthogonalLoop=1;jettySize=auto;html=1;exitX=0.25;exitY=1;exitDx=0;exitDy=0;" parent="PhPgr4dSnUWvsngsLaJ7-1" source="PhPgr4dSnUWvsngsLaJ7-11" target="PhPgr4dSnUWvsngsLaJ7-12" edge="1">
          <mxGeometry relative="1" as="geometry" />
        </mxCell>
        <mxCell id="PhPgr4dSnUWvsngsLaJ7-9" style="edgeStyle=orthogonalEdgeStyle;rounded=0;orthogonalLoop=1;jettySize=auto;html=1;entryX=0.5;entryY=0;entryDx=0;entryDy=0;" parent="PhPgr4dSnUWvsngsLaJ7-1" source="PhPgr4dSnUWvsngsLaJ7-11" target="PhPgr4dSnUWvsngsLaJ7-26" edge="1">
          <mxGeometry relative="1" as="geometry" />
        </mxCell>
        <mxCell id="PhPgr4dSnUWvsngsLaJ7-10" style="edgeStyle=orthogonalEdgeStyle;rounded=0;orthogonalLoop=1;jettySize=auto;html=1;exitX=0.75;exitY=1;exitDx=0;exitDy=0;entryX=0.5;entryY=0;entryDx=0;entryDy=0;" parent="PhPgr4dSnUWvsngsLaJ7-1" source="PhPgr4dSnUWvsngsLaJ7-11" target="PhPgr4dSnUWvsngsLaJ7-7" edge="1">
          <mxGeometry relative="1" as="geometry" />
        </mxCell>
        <mxCell id="PhPgr4dSnUWvsngsLaJ7-11" value="Sequential Function Call Order" style="whiteSpace=wrap;html=1;" parent="PhPgr4dSnUWvsngsLaJ7-1" vertex="1">
          <mxGeometry x="280" y="560" width="200" height="20" as="geometry" />
        </mxCell>
        <mxCell id="PhPgr4dSnUWvsngsLaJ7-12" value="set_input" style="whiteSpace=wrap;html=1;" parent="PhPgr4dSnUWvsngsLaJ7-1" vertex="1">
          <mxGeometry x="290" y="620" width="80" height="20" as="geometry" />
        </mxCell>
        <mxCell id="PhPgr4dSnUWvsngsLaJ7-13" value="" style="endArrow=none;dashed=1;html=1;rounded=0;" parent="PhPgr4dSnUWvsngsLaJ7-1" edge="1">
          <mxGeometry width="50" height="50" relative="1" as="geometry">
            <mxPoint x="280" y="760" as="sourcePoint" />
            <mxPoint x="280" y="760" as="targetPoint" />
            <Array as="points">
              <mxPoint x="440" y="760" />
              <mxPoint x="580" y="760" />
              <mxPoint x="580" y="1070" />
              <mxPoint x="280" y="1070" />
            </Array>
          </mxGeometry>
        </mxCell>
        <mxCell id="PhPgr4dSnUWvsngsLaJ7-14" value="&lt;b&gt;APP&lt;/b&gt;" style="text;html=1;align=center;verticalAlign=middle;resizable=0;points=[];autosize=1;strokeColor=none;fillColor=none;" parent="PhPgr4dSnUWvsngsLaJ7-1" vertex="1">
          <mxGeometry x="280" y="730" width="50" height="30" as="geometry" />
        </mxCell>
        <mxCell id="PhPgr4dSnUWvsngsLaJ7-15" value="&lt;span style=&quot;font-weight: normal;&quot;&gt;Converter&lt;/span&gt;" style="swimlane;fontStyle=1;align=center;verticalAlign=top;childLayout=stackLayout;horizontal=1;startSize=26;horizontalStack=0;resizeParent=1;resizeParentMax=0;resizeLast=0;collapsible=1;marginBottom=0;whiteSpace=wrap;html=1;" parent="PhPgr4dSnUWvsngsLaJ7-1" vertex="1">
          <mxGeometry x="300" y="780" width="260" height="268" as="geometry" />
        </mxCell>
        <mxCell id="PhPgr4dSnUWvsngsLaJ7-16" value="+ SUPPORTED_FILE_EXTENSIONS" style="text;strokeColor=none;fillColor=none;align=left;verticalAlign=top;spacingLeft=4;spacingRight=4;overflow=hidden;rotatable=0;points=[[0,0.5],[1,0.5]];portConstraint=eastwest;whiteSpace=wrap;html=1;" parent="PhPgr4dSnUWvsngsLaJ7-15" vertex="1">
          <mxGeometry y="26" width="260" height="26" as="geometry" />
        </mxCell>
        <mxCell id="PhPgr4dSnUWvsngsLaJ7-17" value="+ SUPPORTED_EXPORT_FILE_FORMAT" style="text;strokeColor=none;fillColor=none;align=left;verticalAlign=top;spacingLeft=4;spacingRight=4;overflow=hidden;rotatable=0;points=[[0,0.5],[1,0.5]];portConstraint=eastwest;whiteSpace=wrap;html=1;" parent="PhPgr4dSnUWvsngsLaJ7-15" vertex="1">
          <mxGeometry y="52" width="260" height="26" as="geometry" />
        </mxCell>
        <mxCell id="PhPgr4dSnUWvsngsLaJ7-18" value="+ MAP_FILE_FORMAT_TO_FILE_MIMETYPE" style="text;strokeColor=none;fillColor=none;align=left;verticalAlign=top;spacingLeft=4;spacingRight=4;overflow=hidden;rotatable=0;points=[[0,0.5],[1,0.5]];portConstraint=eastwest;whiteSpace=wrap;html=1;" parent="PhPgr4dSnUWvsngsLaJ7-15" vertex="1">
          <mxGeometry y="78" width="260" height="26" as="geometry" />
        </mxCell>
        <mxCell id="PhPgr4dSnUWvsngsLaJ7-19" value="- _filepath: str" style="text;strokeColor=none;fillColor=none;align=left;verticalAlign=top;spacingLeft=4;spacingRight=4;overflow=hidden;rotatable=0;points=[[0,0.5],[1,0.5]];portConstraint=eastwest;whiteSpace=wrap;html=1;" parent="PhPgr4dSnUWvsngsLaJ7-15" vertex="1">
          <mxGeometry y="104" width="260" height="26" as="geometry" />
        </mxCell>
        <mxCell id="PhPgr4dSnUWvsngsLaJ7-20" value="- _export_file_format: str" style="text;strokeColor=none;fillColor=none;align=left;verticalAlign=top;spacingLeft=4;spacingRight=4;overflow=hidden;rotatable=0;points=[[0,0.5],[1,0.5]];portConstraint=eastwest;whiteSpace=wrap;html=1;" parent="PhPgr4dSnUWvsngsLaJ7-15" vertex="1">
          <mxGeometry y="130" width="260" height="26" as="geometry" />
        </mxCell>
        <mxCell id="PhPgr4dSnUWvsngsLaJ7-21" value="" style="line;strokeWidth=1;fillColor=none;align=left;verticalAlign=middle;spacingTop=-1;spacingLeft=3;spacingRight=3;rotatable=0;labelPosition=right;points=[];portConstraint=eastwest;strokeColor=inherit;" parent="PhPgr4dSnUWvsngsLaJ7-15" vertex="1">
          <mxGeometry y="156" width="260" height="8" as="geometry" />
        </mxCell>
        <mxCell id="PhPgr4dSnUWvsngsLaJ7-22" value="- _join_sequence(items: Sequence[str]): str" style="text;strokeColor=none;fillColor=none;align=left;verticalAlign=top;spacingLeft=4;spacingRight=4;overflow=hidden;rotatable=0;points=[[0,0.5],[1,0.5]];portConstraint=eastwest;whiteSpace=wrap;html=1;" parent="PhPgr4dSnUWvsngsLaJ7-15" vertex="1">
          <mxGeometry y="164" width="260" height="26" as="geometry" />
        </mxCell>
        <mxCell id="PhPgr4dSnUWvsngsLaJ7-23" value="+ set_input(filepath: str): None" style="text;strokeColor=none;fillColor=none;align=left;verticalAlign=top;spacingLeft=4;spacingRight=4;overflow=hidden;rotatable=0;points=[[0,0.5],[1,0.5]];portConstraint=eastwest;whiteSpace=wrap;html=1;" parent="PhPgr4dSnUWvsngsLaJ7-15" vertex="1">
          <mxGeometry y="190" width="260" height="26" as="geometry" />
        </mxCell>
        <mxCell id="PhPgr4dSnUWvsngsLaJ7-24" value="+ set_output(export_file_format: str): None" style="text;strokeColor=none;fillColor=none;align=left;verticalAlign=top;spacingLeft=4;spacingRight=4;overflow=hidden;rotatable=0;points=[[0,0.5],[1,0.5]];portConstraint=eastwest;whiteSpace=wrap;html=1;" parent="PhPgr4dSnUWvsngsLaJ7-15" vertex="1">
          <mxGeometry y="216" width="260" height="26" as="geometry" />
        </mxCell>
        <mxCell id="PhPgr4dSnUWvsngsLaJ7-25" value="+ convert(): Bytes" style="text;strokeColor=none;fillColor=none;align=left;verticalAlign=top;spacingLeft=4;spacingRight=4;overflow=hidden;rotatable=0;points=[[0,0.5],[1,0.5]];portConstraint=eastwest;whiteSpace=wrap;html=1;" parent="PhPgr4dSnUWvsngsLaJ7-15" vertex="1">
          <mxGeometry y="242" width="260" height="26" as="geometry" />
        </mxCell>
        <mxCell id="PhPgr4dSnUWvsngsLaJ7-26" value="set_output" style="whiteSpace=wrap;html=1;" parent="PhPgr4dSnUWvsngsLaJ7-1" vertex="1">
          <mxGeometry x="340" y="660" width="80" height="20" as="geometry" />
        </mxCell>
        <mxCell id="PhPgr4dSnUWvsngsLaJ7-27" value="" style="endArrow=none;dashed=1;html=1;rounded=0;" parent="PhPgr4dSnUWvsngsLaJ7-1" edge="1">
          <mxGeometry width="50" height="50" relative="1" as="geometry">
            <mxPoint x="640" y="540" as="sourcePoint" />
            <mxPoint x="640" y="540" as="targetPoint" />
            <Array as="points">
              <mxPoint x="740" y="540" />
              <mxPoint x="840" y="540" />
              <mxPoint x="840" y="680" />
              <mxPoint x="640" y="680" />
            </Array>
          </mxGeometry>
        </mxCell>
        <mxCell id="PhPgr4dSnUWvsngsLaJ7-28" style="edgeStyle=orthogonalEdgeStyle;rounded=0;orthogonalLoop=1;jettySize=auto;html=1;entryX=0.75;entryY=0;entryDx=0;entryDy=0;" parent="PhPgr4dSnUWvsngsLaJ7-1" target="PhPgr4dSnUWvsngsLaJ7-11" edge="1">
          <mxGeometry relative="1" as="geometry">
            <Array as="points">
              <mxPoint x="740" y="500" />
              <mxPoint x="430" y="500" />
            </Array>
            <mxPoint x="740" y="560" as="sourcePoint" />
            <mxPoint x="440" y="560" as="targetPoint" />
          </mxGeometry>
        </mxCell>
        <mxCell id="PhPgr4dSnUWvsngsLaJ7-29" value="TestConverter" style="swimlane;fontStyle=0;childLayout=stackLayout;horizontal=1;startSize=26;fillColor=none;horizontalStack=0;resizeParent=1;resizeParentMax=0;resizeLast=0;collapsible=1;marginBottom=0;whiteSpace=wrap;html=1;" parent="PhPgr4dSnUWvsngsLaJ7-1" vertex="1">
          <mxGeometry x="660" y="560" width="160" height="104" as="geometry" />
        </mxCell>
        <mxCell id="PhPgr4dSnUWvsngsLaJ7-30" value="+ test_input" style="text;strokeColor=none;fillColor=none;align=left;verticalAlign=top;spacingLeft=4;spacingRight=4;overflow=hidden;rotatable=0;points=[[0,0.5],[1,0.5]];portConstraint=eastwest;whiteSpace=wrap;html=1;" parent="PhPgr4dSnUWvsngsLaJ7-29" vertex="1">
          <mxGeometry y="26" width="160" height="26" as="geometry" />
        </mxCell>
        <mxCell id="PhPgr4dSnUWvsngsLaJ7-31" value="+ test_output" style="text;strokeColor=none;fillColor=none;align=left;verticalAlign=top;spacingLeft=4;spacingRight=4;overflow=hidden;rotatable=0;points=[[0,0.5],[1,0.5]];portConstraint=eastwest;whiteSpace=wrap;html=1;" parent="PhPgr4dSnUWvsngsLaJ7-29" vertex="1">
          <mxGeometry y="52" width="160" height="26" as="geometry" />
        </mxCell>
        <mxCell id="PhPgr4dSnUWvsngsLaJ7-32" value="+ test_convert" style="text;strokeColor=none;fillColor=none;align=left;verticalAlign=top;spacingLeft=4;spacingRight=4;overflow=hidden;rotatable=0;points=[[0,0.5],[1,0.5]];portConstraint=eastwest;whiteSpace=wrap;html=1;" parent="PhPgr4dSnUWvsngsLaJ7-29" vertex="1">
          <mxGeometry y="78" width="160" height="26" as="geometry" />
        </mxCell>
        <mxCell id="PhPgr4dSnUWvsngsLaJ7-33" value="&lt;b&gt;API TEST&lt;/b&gt;" style="text;html=1;align=center;verticalAlign=middle;resizable=0;points=[];autosize=1;strokeColor=none;fillColor=none;" parent="PhPgr4dSnUWvsngsLaJ7-1" vertex="1">
          <mxGeometry x="640" y="510" width="80" height="30" as="geometry" />
        </mxCell>
        <mxCell id="PhPgr4dSnUWvsngsLaJ7-34" style="edgeStyle=orthogonalEdgeStyle;rounded=0;orthogonalLoop=1;jettySize=auto;html=1;entryX=0.25;entryY=0;entryDx=0;entryDy=0;" parent="PhPgr4dSnUWvsngsLaJ7-1" source="PhPgr4dSnUWvsngsLaJ7-35" target="PhPgr4dSnUWvsngsLaJ7-11" edge="1">
          <mxGeometry relative="1" as="geometry">
            <Array as="points">
              <mxPoint x="140" y="500" />
              <mxPoint x="330" y="500" />
            </Array>
          </mxGeometry>
        </mxCell>
        <mxCell id="PhPgr4dSnUWvsngsLaJ7-35" value="main" style="swimlane;fontStyle=0;childLayout=stackLayout;horizontal=1;startSize=26;fillColor=none;horizontalStack=0;resizeParent=1;resizeParentMax=0;resizeLast=0;collapsible=1;marginBottom=0;whiteSpace=wrap;html=1;" parent="PhPgr4dSnUWvsngsLaJ7-1" vertex="1">
          <mxGeometry x="80" y="560" width="120" height="104" as="geometry" />
        </mxCell>
        <mxCell id="PhPgr4dSnUWvsngsLaJ7-36" value="+&amp;nbsp;&lt;span style=&quot;text-align: center;&quot;&gt;-h, --help&lt;/span&gt;" style="text;strokeColor=none;fillColor=none;align=left;verticalAlign=top;spacingLeft=4;spacingRight=4;overflow=hidden;rotatable=0;points=[[0,0.5],[1,0.5]];portConstraint=eastwest;whiteSpace=wrap;html=1;" parent="PhPgr4dSnUWvsngsLaJ7-35" vertex="1">
          <mxGeometry y="26" width="120" height="26" as="geometry" />
        </mxCell>
        <mxCell id="PhPgr4dSnUWvsngsLaJ7-37" value="+&amp;nbsp;&lt;span style=&quot;text-align: center;&quot;&gt;-i, --input&lt;/span&gt;" style="text;strokeColor=none;fillColor=none;align=left;verticalAlign=top;spacingLeft=4;spacingRight=4;overflow=hidden;rotatable=0;points=[[0,0.5],[1,0.5]];portConstraint=eastwest;whiteSpace=wrap;html=1;" parent="PhPgr4dSnUWvsngsLaJ7-35" vertex="1">
          <mxGeometry y="52" width="120" height="26" as="geometry" />
        </mxCell>
        <mxCell id="PhPgr4dSnUWvsngsLaJ7-38" value="+&amp;nbsp;&lt;span style=&quot;text-align: center;&quot;&gt;-o, --output&lt;/span&gt;" style="text;strokeColor=none;fillColor=none;align=left;verticalAlign=top;spacingLeft=4;spacingRight=4;overflow=hidden;rotatable=0;points=[[0,0.5],[1,0.5]];portConstraint=eastwest;whiteSpace=wrap;html=1;" parent="PhPgr4dSnUWvsngsLaJ7-35" vertex="1">
          <mxGeometry y="78" width="120" height="26" as="geometry" />
        </mxCell>
        <mxCell id="PhPgr4dSnUWvsngsLaJ7-39" style="edgeStyle=orthogonalEdgeStyle;rounded=0;orthogonalLoop=1;jettySize=auto;html=1;exitX=0.25;exitY=1;exitDx=0;exitDy=0;" parent="PhPgr4dSnUWvsngsLaJ7-1" source="PhPgr4dSnUWvsngsLaJ7-40" target="PhPgr4dSnUWvsngsLaJ7-43" edge="1">
          <mxGeometry relative="1" as="geometry" />
        </mxCell>
        <mxCell id="PhPgr4dSnUWvsngsLaJ7-40" value="POST /audio/convert" style="whiteSpace=wrap;html=1;" parent="PhPgr4dSnUWvsngsLaJ7-1" vertex="1">
          <mxGeometry x="310" y="260" width="280" height="20" as="geometry" />
        </mxCell>
        <mxCell id="PhPgr4dSnUWvsngsLaJ7-41" value="" style="endArrow=none;dashed=1;html=1;rounded=0;" parent="PhPgr4dSnUWvsngsLaJ7-1" edge="1">
          <mxGeometry width="50" height="50" relative="1" as="geometry">
            <mxPoint x="30" y="120" as="sourcePoint" />
            <mxPoint x="30" y="120" as="targetPoint" />
            <Array as="points">
              <mxPoint x="610" y="120" />
              <mxPoint x="610" y="420" />
              <mxPoint x="30" y="420" />
            </Array>
          </mxGeometry>
        </mxCell>
        <mxCell id="PhPgr4dSnUWvsngsLaJ7-42" style="edgeStyle=orthogonalEdgeStyle;rounded=0;orthogonalLoop=1;jettySize=auto;html=1;entryX=0.5;entryY=0;entryDx=0;entryDy=0;" parent="PhPgr4dSnUWvsngsLaJ7-1" source="PhPgr4dSnUWvsngsLaJ7-43" target="PhPgr4dSnUWvsngsLaJ7-11" edge="1">
          <mxGeometry relative="1" as="geometry" />
        </mxCell>
        <mxCell id="PhPgr4dSnUWvsngsLaJ7-43" value="Request" style="swimlane;fontStyle=0;childLayout=stackLayout;horizontal=1;startSize=26;fillColor=none;horizontalStack=0;resizeParent=1;resizeParentMax=0;resizeLast=0;collapsible=1;marginBottom=0;whiteSpace=wrap;html=1;" parent="PhPgr4dSnUWvsngsLaJ7-1" vertex="1">
          <mxGeometry x="320" y="320" width="120" height="78" as="geometry" />
        </mxCell>
        <mxCell id="PhPgr4dSnUWvsngsLaJ7-44" value="export_file_format" style="text;strokeColor=none;fillColor=none;align=left;verticalAlign=top;spacingLeft=4;spacingRight=4;overflow=hidden;rotatable=0;points=[[0,0.5],[1,0.5]];portConstraint=eastwest;whiteSpace=wrap;html=1;" parent="PhPgr4dSnUWvsngsLaJ7-43" vertex="1">
          <mxGeometry y="26" width="120" height="26" as="geometry" />
        </mxCell>
        <mxCell id="PhPgr4dSnUWvsngsLaJ7-45" value="@file" style="text;strokeColor=none;fillColor=none;align=left;verticalAlign=top;spacingLeft=4;spacingRight=4;overflow=hidden;rotatable=0;points=[[0,0.5],[1,0.5]];portConstraint=eastwest;whiteSpace=wrap;html=1;" parent="PhPgr4dSnUWvsngsLaJ7-43" vertex="1">
          <mxGeometry y="52" width="120" height="26" as="geometry" />
        </mxCell>
        <mxCell id="PhPgr4dSnUWvsngsLaJ7-46" style="edgeStyle=orthogonalEdgeStyle;rounded=0;orthogonalLoop=1;jettySize=auto;html=1;entryX=0.75;entryY=1;entryDx=0;entryDy=0;" parent="PhPgr4dSnUWvsngsLaJ7-1" source="PhPgr4dSnUWvsngsLaJ7-47" target="PhPgr4dSnUWvsngsLaJ7-40" edge="1">
          <mxGeometry relative="1" as="geometry" />
        </mxCell>
        <mxCell id="PhPgr4dSnUWvsngsLaJ7-47" value="Response" style="swimlane;fontStyle=0;childLayout=stackLayout;horizontal=1;startSize=26;fillColor=none;horizontalStack=0;resizeParent=1;resizeParentMax=0;resizeLast=0;collapsible=1;marginBottom=0;whiteSpace=wrap;html=1;" parent="PhPgr4dSnUWvsngsLaJ7-1" vertex="1">
          <mxGeometry x="460" y="320" width="120" height="78" as="geometry" />
        </mxCell>
        <mxCell id="PhPgr4dSnUWvsngsLaJ7-48" value="status" style="text;strokeColor=none;fillColor=none;align=left;verticalAlign=top;spacingLeft=4;spacingRight=4;overflow=hidden;rotatable=0;points=[[0,0.5],[1,0.5]];portConstraint=eastwest;whiteSpace=wrap;html=1;" parent="PhPgr4dSnUWvsngsLaJ7-47" vertex="1">
          <mxGeometry y="26" width="120" height="26" as="geometry" />
        </mxCell>
        <mxCell id="PhPgr4dSnUWvsngsLaJ7-49" value="@attachment" style="text;strokeColor=none;fillColor=none;align=left;verticalAlign=top;spacingLeft=4;spacingRight=4;overflow=hidden;rotatable=0;points=[[0,0.5],[1,0.5]];portConstraint=eastwest;whiteSpace=wrap;html=1;" parent="PhPgr4dSnUWvsngsLaJ7-47" vertex="1">
          <mxGeometry y="52" width="120" height="26" as="geometry" />
        </mxCell>
        <mxCell id="PhPgr4dSnUWvsngsLaJ7-50" value="&lt;b&gt;Backend&lt;/b&gt;" style="text;html=1;align=center;verticalAlign=middle;resizable=0;points=[];autosize=1;strokeColor=none;fillColor=none;" parent="PhPgr4dSnUWvsngsLaJ7-1" vertex="1">
          <mxGeometry x="30" y="90" width="70" height="30" as="geometry" />
        </mxCell>
        <mxCell id="PhPgr4dSnUWvsngsLaJ7-51" value="" style="endArrow=none;dashed=1;html=1;rounded=0;" parent="PhPgr4dSnUWvsngsLaJ7-1" edge="1">
          <mxGeometry width="50" height="50" relative="1" as="geometry">
            <mxPoint x="10" y="-170" as="sourcePoint" />
            <mxPoint x="10" y="-170" as="targetPoint" />
            <Array as="points">
              <mxPoint x="630" y="-170" />
              <mxPoint x="630" y="440" />
              <mxPoint x="10" y="440" />
            </Array>
          </mxGeometry>
        </mxCell>
        <mxCell id="PhPgr4dSnUWvsngsLaJ7-52" value="&lt;b&gt;WUI&lt;/b&gt;" style="text;html=1;align=center;verticalAlign=middle;resizable=0;points=[];autosize=1;strokeColor=none;fillColor=none;" parent="PhPgr4dSnUWvsngsLaJ7-1" vertex="1">
          <mxGeometry x="10" y="-200" width="50" height="30" as="geometry" />
        </mxCell>
        <mxCell id="PhPgr4dSnUWvsngsLaJ7-53" style="edgeStyle=orthogonalEdgeStyle;rounded=0;orthogonalLoop=1;jettySize=auto;html=1;" parent="PhPgr4dSnUWvsngsLaJ7-1" source="PhPgr4dSnUWvsngsLaJ7-55" target="PhPgr4dSnUWvsngsLaJ7-40" edge="1">
          <mxGeometry relative="1" as="geometry" />
        </mxCell>
        <mxCell id="PhPgr4dSnUWvsngsLaJ7-54" style="edgeStyle=orthogonalEdgeStyle;rounded=0;orthogonalLoop=1;jettySize=auto;html=1;" parent="PhPgr4dSnUWvsngsLaJ7-1" source="PhPgr4dSnUWvsngsLaJ7-55" target="PhPgr4dSnUWvsngsLaJ7-58" edge="1">
          <mxGeometry relative="1" as="geometry">
            <Array as="points">
              <mxPoint x="380" y="240" />
              <mxPoint x="175" y="240" />
            </Array>
          </mxGeometry>
        </mxCell>
        <mxCell id="PhPgr4dSnUWvsngsLaJ7-55" value="routes" style="whiteSpace=wrap;html=1;" parent="PhPgr4dSnUWvsngsLaJ7-1" vertex="1">
          <mxGeometry x="340" y="200" width="80" height="20" as="geometry" />
        </mxCell>
        <mxCell id="PhPgr4dSnUWvsngsLaJ7-56" style="edgeStyle=orthogonalEdgeStyle;rounded=0;orthogonalLoop=1;jettySize=auto;html=1;" parent="PhPgr4dSnUWvsngsLaJ7-1" source="PhPgr4dSnUWvsngsLaJ7-57" target="PhPgr4dSnUWvsngsLaJ7-55" edge="1">
          <mxGeometry relative="1" as="geometry" />
        </mxCell>
        <mxCell id="PhPgr4dSnUWvsngsLaJ7-57" value="FastAPI" style="whiteSpace=wrap;html=1;" parent="PhPgr4dSnUWvsngsLaJ7-1" vertex="1">
          <mxGeometry x="280" y="140" width="80" height="20" as="geometry" />
        </mxCell>
        <mxCell id="PhPgr4dSnUWvsngsLaJ7-58" value="GET /audio/convert" style="whiteSpace=wrap;html=1;" parent="PhPgr4dSnUWvsngsLaJ7-1" vertex="1">
          <mxGeometry x="110" y="260" width="120" height="20" as="geometry" />
        </mxCell>
        <mxCell id="PhPgr4dSnUWvsngsLaJ7-59" style="edgeStyle=orthogonalEdgeStyle;rounded=0;orthogonalLoop=1;jettySize=auto;html=1;entryX=0.5;entryY=1;entryDx=0;entryDy=0;" parent="PhPgr4dSnUWvsngsLaJ7-1" source="PhPgr4dSnUWvsngsLaJ7-61" target="PhPgr4dSnUWvsngsLaJ7-58" edge="1">
          <mxGeometry relative="1" as="geometry" />
        </mxCell>
        <mxCell id="PhPgr4dSnUWvsngsLaJ7-60" style="edgeStyle=orthogonalEdgeStyle;rounded=0;orthogonalLoop=1;jettySize=auto;html=1;" parent="PhPgr4dSnUWvsngsLaJ7-1" source="PhPgr4dSnUWvsngsLaJ7-61" target="PhPgr4dSnUWvsngsLaJ7-11" edge="1">
          <mxGeometry relative="1" as="geometry">
            <Array as="points">
              <mxPoint x="175" y="460" />
              <mxPoint x="380" y="460" />
            </Array>
          </mxGeometry>
        </mxCell>
        <mxCell id="PhPgr4dSnUWvsngsLaJ7-61" value="Response" style="swimlane;fontStyle=0;childLayout=stackLayout;horizontal=1;startSize=26;fillColor=none;horizontalStack=0;resizeParent=1;resizeParentMax=0;resizeLast=0;collapsible=1;marginBottom=0;whiteSpace=wrap;html=1;" parent="PhPgr4dSnUWvsngsLaJ7-1" vertex="1">
          <mxGeometry x="50" y="320" width="240" height="78" as="geometry" />
        </mxCell>
        <mxCell id="PhPgr4dSnUWvsngsLaJ7-62" value="SUPPORTED_FILE_EXTENSIONS" style="text;strokeColor=none;fillColor=none;align=left;verticalAlign=top;spacingLeft=4;spacingRight=4;overflow=hidden;rotatable=0;points=[[0,0.5],[1,0.5]];portConstraint=eastwest;whiteSpace=wrap;html=1;" parent="PhPgr4dSnUWvsngsLaJ7-61" vertex="1">
          <mxGeometry y="26" width="240" height="26" as="geometry" />
        </mxCell>
        <mxCell id="PhPgr4dSnUWvsngsLaJ7-63" value="SUPPORTED_EXPORT_FILE_FORMATS" style="text;strokeColor=none;fillColor=none;align=left;verticalAlign=top;spacingLeft=4;spacingRight=4;overflow=hidden;rotatable=0;points=[[0,0.5],[1,0.5]];portConstraint=eastwest;whiteSpace=wrap;html=1;" parent="PhPgr4dSnUWvsngsLaJ7-61" vertex="1">
          <mxGeometry y="52" width="240" height="26" as="geometry" />
        </mxCell>
        <mxCell id="PhPgr4dSnUWvsngsLaJ7-64" style="edgeStyle=orthogonalEdgeStyle;rounded=0;orthogonalLoop=1;jettySize=auto;html=1;" parent="PhPgr4dSnUWvsngsLaJ7-1" source="PhPgr4dSnUWvsngsLaJ7-65" target="PhPgr4dSnUWvsngsLaJ7-55" edge="1">
          <mxGeometry relative="1" as="geometry" />
        </mxCell>
        <mxCell id="PhPgr4dSnUWvsngsLaJ7-65" value="DRF" style="whiteSpace=wrap;html=1;" parent="PhPgr4dSnUWvsngsLaJ7-1" vertex="1">
          <mxGeometry x="400" y="140" width="80" height="20" as="geometry" />
        </mxCell>
        <mxCell id="c02LlnyG15XyAG97vDKX-0" value="" style="endArrow=none;dashed=1;html=1;rounded=0;" parent="PhPgr4dSnUWvsngsLaJ7-1" edge="1">
          <mxGeometry width="50" height="50" relative="1" as="geometry">
            <mxPoint x="30" y="-110" as="sourcePoint" />
            <mxPoint x="30" y="-110" as="targetPoint" />
            <Array as="points">
              <mxPoint x="610" y="-110" />
              <mxPoint x="610" y="70" />
              <mxPoint x="30" y="70" />
            </Array>
          </mxGeometry>
        </mxCell>
        <mxCell id="c02LlnyG15XyAG97vDKX-1" value="&lt;b&gt;Frontend&lt;/b&gt;" style="text;html=1;align=center;verticalAlign=middle;resizable=0;points=[];autosize=1;strokeColor=none;fillColor=none;" parent="PhPgr4dSnUWvsngsLaJ7-1" vertex="1">
          <mxGeometry x="25" y="-140" width="80" height="30" as="geometry" />
        </mxCell>
        <mxCell id="c02LlnyG15XyAG97vDKX-9" style="edgeStyle=orthogonalEdgeStyle;rounded=0;orthogonalLoop=1;jettySize=auto;html=1;" parent="PhPgr4dSnUWvsngsLaJ7-1" source="c02LlnyG15XyAG97vDKX-4" target="c02LlnyG15XyAG97vDKX-6" edge="1">
          <mxGeometry relative="1" as="geometry" />
        </mxCell>
        <mxCell id="c02LlnyG15XyAG97vDKX-4" value="ReactJS" style="whiteSpace=wrap;html=1;" parent="PhPgr4dSnUWvsngsLaJ7-1" vertex="1">
          <mxGeometry x="345" y="-90" width="80" height="20" as="geometry" />
        </mxCell>
        <mxCell id="c02LlnyG15XyAG97vDKX-8" style="edgeStyle=orthogonalEdgeStyle;rounded=0;orthogonalLoop=1;jettySize=auto;html=1;" parent="PhPgr4dSnUWvsngsLaJ7-1" source="c02LlnyG15XyAG97vDKX-6" target="c02LlnyG15XyAG97vDKX-7" edge="1">
          <mxGeometry relative="1" as="geometry" />
        </mxCell>
        <mxCell id="c02LlnyG15XyAG97vDKX-6" value="pages" style="whiteSpace=wrap;html=1;" parent="PhPgr4dSnUWvsngsLaJ7-1" vertex="1">
          <mxGeometry x="345" y="-28" width="80" height="20" as="geometry" />
        </mxCell>
        <mxCell id="c02LlnyG15XyAG97vDKX-7" value="/" style="whiteSpace=wrap;html=1;" parent="PhPgr4dSnUWvsngsLaJ7-1" vertex="1">
          <mxGeometry x="345" y="32" width="80" height="20" as="geometry" />
        </mxCell>
      </root>
    </mxGraphModel>
  </diagram>
</mxfile>
